
<svg width="92px" height="96px" viewBox="0 0 92 96" version="1.1" xmlns="http://www.w3.org/2000/svg" xmlns:xlink="http://www.w3.org/1999/xlink">
    <!-- Generator: Sketch 46.2 (44496) - http://www.bohemiancoding.com/sketch -->
    <desc>Created with Sketch.</desc>
    <defs></defs>
    <g id="paginadorCarpetaInvestigación-Correcciones" stroke="none" stroke-width="1" fill="none" fill-rule="evenodd">
        <g id="Detalle-de-caso-NIC" transform="translate(-906.000000, -1925.000000)" fill-rule="nonzero">
            <g id="Detalle-pre-denuncia" transform="translate(133.000000, 649.000000)">
                <g id="Entrevistas" transform="translate(50.000000, 1175.000000)">
                    <g id="Card-Menu-Copy-6" transform="translate(1.000000, 101.000000)">
                        <g id="051-witness" transform="translate(722.000000, 0.000000)">
                            <path d="M90.0019688,0 L50.0010313,0 C48.8964515,0 48,0.896472518 48,1.99807805 L48,38.003797 C48,39.1054026 48.8964515,40.0018751 50.0010313,40.0018751 L56.0009375,40.0018751 L56.0009375,48 L72.0024375,40.0018751 L90.0019688,40.0018751 C91.1065485,40.0018751 92,39.1054026 92,38.003797 L92,1.99807805 C92,0.896472518 91.1065485,0 90.0019688,0 Z" id="Shape" fill="#ED5564"></path>
                            <path d="M47.2544722,81 L6.74635123,81 C6.74635123,81 -3.81343577,32 27.0004117,32 C57.8114618,32 47.2544722,81 47.2544722,81 Z" id="Shape" fill="#E2A437"></path>
                            <path d="M50.9422148,79.9982672 L50.7158057,79.9325383 C47.3957049,79.0249448 46.2726937,78.1532729 44.7934129,77.5859792 C39.5504352,75.5558359 38.1861469,74.0931774 37.8360881,73.4064635 C37.8244194,73.3766562 37.8155739,73.3527722 37.803717,73.3288882 L37.7596774,67.1433042 L28,67 L18.2403226,67.1433042 L18.196283,73.3288882 C18.1846144,73.3527722 18.1757688,73.3766562 18.1639119,73.4064635 C17.8140413,74.0931774 16.4495648,75.5558359 11.2065871,77.5859792 C9.72749454,78.1532729 8.60410687,79.0249448 5.28419425,79.9325383 L5.05477399,79.9982672 C2.03184675,81.0132433 0,83.8554439 0,87.0675605 L0,96 L28,96 L56,96 L56,87.0675605 C56,83.8554439 53.9653302,81.0134344 50.9422148,79.9982672 Z" id="Shape" fill="#A0D468"></path>
                            <path d="M45,56.5436438 C45,67.7203571 34.4699618,78 28.0013905,78 C21.5298528,78 11,67.7201695 11,56.5436438 C11,45.3729322 18.6128867,38 28.0013905,38 C37.3898944,38 45,45.3729322 45,56.5436438 Z" id="Shape" fill="#EAC6BB"></path>
                            <polygon id="Shape" fill="#FFCE54" points="30.1117053 44.453442 14.6616326 54.6512891 9 56 10.3364208 48.779029 14.132118 38.8022149 24.7802473 35 37.2591234 35.8255249 42.4998021 44.755781 44 51.3488172"></polygon>
                            <path d="M50,58.9579611 C49.4275946,49.7203404 46.9854316,40.0746159 40.099659,35 L32.2599401,41.6822686 L30,45.0655378 L49.9708819,59 L50,58.9579611 Z" id="Shape" fill="#F6BB42"></path>
                            <g id="Group" transform="translate(5.000000, 8.000000)" fill="#FFCE54">
                                <path d="M0.104943339,52.2278935 C7.86195835,50.7978369 16.4343887,46.5428415 25.5885905,39.5756175 C31.0454571,35.4153667 35.0349875,31.5505071 36.5490898,30.025895 C33.2344891,26.5392572 28.5726478,24.3351696 22.072521,24.3351696 C5.39532223,24.3349805 0.800637236,38.8545376 0.104943339,52.2278935 Z" id="Shape"></path>
                                <path d="M64.0842764,18.2747324 C62.9822778,18.2747324 62.0881082,17.3705931 62.0881082,16.2567299 L62.0881082,2.13884435 C62.0881082,1.02498111 62.9822778,0.120841869 64.0842764,0.120841869 C65.186275,0.120841869 66.0806317,1.02498111 66.0806317,2.13884435 L66.0806317,16.2565408 C66.0806317,17.3705931 65.186275,18.2747324 64.0842764,18.2747324 Z" id="Shape"></path>
                                <path d="M66.0806317,22.3080898 C66.0806317,23.421953 65.186275,24.3260923 64.0842764,24.3260923 C62.9822778,24.3260923 62.0881082,23.421953 62.0881082,22.3080898 C62.0881082,21.1940374 62.9822778,20.292924 64.0842764,20.292924 C65.186275,20.292924 66.0806317,21.1940374 66.0806317,22.3080898 Z" id="Shape"></path>
                            </g>
                        </g>
                    </g>
                </g>
            </g>
        </g>
    </g>
</svg>