<?xml version="1.0" encoding="UTF-8"?>
<svg width="66px" height="95px" viewBox="0 0 66 95" version="1.1" xmlns="http://www.w3.org/2000/svg" xmlns:xlink="http://www.w3.org/1999/xlink">
    <!-- Generator: Sketch 46.2 (44496) - http://www.bohemiancoding.com/sketch -->
    <title>051-quill</title>
    <desc>Created with Sketch.</desc>
    <defs></defs>
    <g id="paginadorCarpetaInvestigación-Correcciones" stroke="none" stroke-width="1" fill="none" fill-rule="evenodd">
        <g id="Detalle-de-caso-NIC" transform="translate(-1132.000000, -2250.000000)" fill-rule="nonzero">
            <g id="Detalle-pre-denuncia" transform="translate(133.000000, 649.000000)">
                <g id="Conclusiones" transform="translate(49.000000, 1460.000000)">
                    <g id="051-quill" transform="translate(950.000000, 141.000000)">
                        <polygon id="Shape" fill="#4281CD" points="22.1506011 56.9546629 22.1506011 63.5541067 2.00669663 69.2560618 2.00669663 92.9839888 63.9927472 92.9839888 63.9927472 69.2560618 43.8464326 63.5507697 43.8464326 56.9546629"></polygon>
                        <g id="Group" transform="translate(1.853933, 51.910112)" fill="#0058A0">
                            <rect id="Rectangle-path" x="0.152207865" y="23.0597697" width="61.9860506" height="18.0146629"></rect>
                            <polygon id="Shape" points="27.0544382 0.00815730337 17.7799551 0.00815730337 17.7799551 5.04455056 44.5114382 5.04455056 44.5114382 0.00815730337 39.3460112 0.00815730337"></polygon>
                        </g>
                        <path d="M17.1273708,76.8911124 L17.1019719,76.8911124 C16.0322528,76.8911124 15.1649831,76.0238427 15.1649831,74.9541236 C15.1649831,73.8844045 16.0324382,73.0171348 17.1019719,73.0171348 L17.1273708,73.0171348 C18.1970899,73.0171348 19.0643596,73.8844045 19.0643596,74.9541236 C19.0643596,76.0238427 18.1969045,76.8911124 17.1273708,76.8911124 Z" id="Shape" fill="#000000"></path>
                        <path d="M35.061573,52.3845337 L29.0138596,33.7666011 C31.4686517,19.8446798 38.9535337,1.08770225 43.9513652,1.9688764 C48.9491966,2.85005056 49.5672978,23.0358539 47.1125056,36.9575899 L35.061573,52.3845337 Z" id="Shape" fill="#C2EDFF"></path>
                        <path d="M64.5205618,67.3924888 L45.7836067,62.0861629 L45.7836067,58.8918371 L46.3655562,58.8918371 C47.4352753,58.8918371 48.3025449,58.0245674 48.3025449,56.9548483 L48.3025449,51.9184551 C48.3025449,50.8485506 47.4350899,49.9814663 46.3655562,49.9814663 L41.1999438,49.9814663 C40.1302247,49.9814663 39.2629551,50.848736 39.2629551,51.9184551 C39.2629551,52.9881742 40.1304101,53.8554438 41.1999438,53.8554438 L44.428382,53.8554438 L44.428382,55.0176742 L36.5643708,55.0176742 L36.8852865,53.1971124 L48.6390337,38.1505955 C48.8342528,37.9006854 48.9649551,37.6068371 49.0200169,37.2946348 C50.2660449,30.228927 50.7406517,21.4720618 50.259,14.4413933 C49.6373764,5.36453933 47.684073,0.660926966 44.2876685,0.0619213483 C40.8923764,-0.53652809 37.4473989,3.21490449 33.7584438,11.5318315 C30.9013483,17.9738764 28.3525618,26.3651461 27.1065337,33.4306685 C27.0512865,33.7428708 27.0737191,34.0639719 27.1717921,34.3654213 L33.070264,52.5239494 L32.6305112,55.0178596 L21.5710618,55.0178596 L21.5710618,53.8556292 L28.9083708,53.8556292 C29.9780899,53.8556292 30.8453596,52.9883596 30.8453596,51.9186404 C30.8453596,50.8489213 29.9779045,49.9816517 28.9083708,49.9816517 L19.6338876,49.9816517 C18.5641685,49.9816517 17.6968989,50.8489213 17.6968989,51.9186404 L17.6968989,56.9550337 C17.6968989,58.0249382 18.5643539,58.8920225 19.6338876,58.8920225 L20.2132416,58.8920225 L20.2132416,62.0895 L1.47925281,67.3923034 C0.645353933,67.6284944 0.0698932584,68.3895337 0.0698932584,69.2560618 L0.0698932584,92.9839888 C0.0698932584,94.0538933 0.937348315,94.9209775 2.00688202,94.9209775 L63.9929326,94.9209775 C65.0626517,94.9209775 65.9299213,94.0537079 65.9299213,92.9839888 L65.9299213,69.2560618 C65.929736,68.3897191 65.3544607,67.628309 64.5205618,67.3924888 Z M38.3183764,45.0687303 L39.8530618,36.3648876 L45.8585056,32.1597978 C45.6944326,33.528927 45.5038483,34.8659831 45.2865674,36.1483483 L38.3183764,45.0687303 Z M45.1024719,6.59555056 C45.6187921,8.25241011 46.127882,10.8191798 46.3941067,14.7052079 C46.6556966,18.5226404 46.6208427,22.8712247 46.3262528,27.1569607 C46.2016685,27.209427 40.8046854,30.9693876 40.8046854,30.9693876 L45.1024719,6.59555056 Z M41.2876348,5.92164607 L37.9225618,25.0060281 L34.8856348,19.2365899 C35.644264,17.0756461 36.4581404,14.9999831 37.3001966,13.1017416 C38.8795618,9.54015169 40.2358989,7.30208427 41.2876348,5.92164607 Z M31.0064663,33.6305225 C31.5450337,30.6922247 32.3103371,27.5327528 33.2263652,24.4020169 C33.2263652,24.4020169 36.7532865,31.0626404 36.8367135,31.1636798 L34.5035393,44.3957528 L31.0064663,33.6305225 Z M62.055573,91.0468146 L3.94368539,91.0468146 L3.94368539,76.8940787 L10.8351236,76.8938933 C11.9050281,76.8938933 12.7721124,76.0264382 12.7721124,74.9569045 C12.7721124,73.8871854 11.9046573,73.0199157 10.8351236,73.0199157 L3.94368539,73.0201011 L3.94368539,70.7210393 L22.6780449,65.4180506 C23.5119438,65.1818596 24.0874045,64.4208202 24.0874045,63.5542921 L24.0874045,58.8918371 L31.9471517,58.8918371 L29.4563933,73.0175056 L23.396073,73.0175056 C22.3261685,73.0175056 21.4590843,73.8847753 21.4590843,74.9544944 C21.4590843,76.0242135 22.3265393,76.8914831 23.396073,76.8914831 L62.0553876,76.8911124 L62.0553876,91.0468146 L62.055573,91.0468146 Z M62.055573,73.0169494 L33.3902528,73.0171348 L35.8810112,58.8916517 L41.9092584,58.8916517 L41.9092584,63.5509551 C41.9092584,64.4176685 42.4847191,65.1787079 43.3184326,65.4147135 L62.0553876,70.7208539 L62.0553876,73.0169494 L62.055573,73.0169494 Z" id="Shape" fill="#000000"></path>
                    </g>
                </g>
            </g>
        </g>
    </g>
</svg>