<?xml version="1.0" encoding="UTF-8"?>
<svg width="79px" height="81px" viewBox="0 0 79 81" version="1.1" xmlns="http://www.w3.org/2000/svg" xmlns:xlink="http://www.w3.org/1999/xlink">
    <!-- Generator: Sketch 46.2 (44496) - http://www.bohemiancoding.com/sketch -->
    <title>item menu copy 2</title>
    <desc>Created with Sketch.</desc>
    <defs></defs>
    <g id="paginadorCarpetaInvestigación-Correcciones" stroke="none" stroke-width="1" fill="none" fill-rule="evenodd">
        <g id="Detalle-de-caso-NIC" transform="translate(-184.000000, -2109.000000)">
            <g id="Detalle-pre-denuncia" transform="translate(133.000000, 649.000000)">
                <g id="Conclusiones" transform="translate(49.000000, 1460.000000)">
                    <g id="item-menu-copy-2" transform="translate(2.000000, 0.000000)">
                        <ellipse id="Oval-2" fill="#CF455D" cx="39.5" cy="40.4132948" rx="39.5" ry="40.4132948"></ellipse>
                        <g id="shredder" transform="translate(24.658960, 20.549133)" fill-rule="nonzero" fill="#FFFFFF">
                            <path d="M24.429673,18.7225434 C24.052557,18.7225434 23.7456647,19.0289321 23.7456647,19.4075787 C23.7456647,19.7861611 24.052557,20.0924855 24.429673,20.0924855 C24.8087147,20.0924855 25.1156069,19.7860968 25.1156069,19.4075787 C25.1156069,19.0288678 24.8087789,18.7225434 24.429673,18.7225434 Z" id="Shape"></path>
                            <path d="M21.6907514,18.7225434 C21.3120761,18.7225434 21.0057803,19.0289321 21.0057803,19.4075787 C21.0057803,19.7861611 21.3121404,20.0924855 21.6907514,20.0924855 C22.0693625,20.0924855 22.3757225,19.7860968 22.3757225,19.4075787 C22.3757225,19.0288678 22.0694268,18.7225434 21.6907514,18.7225434 Z" id="Shape"></path>
                            <path d="M18.4951825,18.7225434 C18.1161408,18.7225434 17.8092486,19.0289321 17.8092486,19.4075787 C17.8092486,19.7861611 18.1160766,20.0924855 18.4951825,20.0924855 C18.8722985,20.0924855 19.1791908,19.7860968 19.1791908,19.4075787 C19.1791908,19.0288678 18.8722985,18.7225434 18.4951825,18.7225434 Z" id="Shape"></path>
                            <path d="M27.9858371,14.270404 L25.8330804,14.270404 L25.8330804,6.43938578 C25.8330804,6.43363274 25.8341568,6.42734454 25.8341568,6.4215915 C25.8341568,6.27522358 25.7889461,6.1393583 25.7132585,6.02650515 C25.7132585,6.02650515 25.7132585,6.02596998 25.7121821,6.02543482 C25.7006103,6.00717228 25.6869529,5.989378 25.6732955,5.97265406 C25.6712099,5.9705803 25.6701334,5.9689748 25.6691242,5.96743619 C25.6554668,5.95178259 25.6418094,5.93606208 25.6270756,5.92141191 C25.62499,5.91987331 25.62499,5.91826781 25.6229044,5.91726438 L25.6019137,5.8963929 L19.8814798,0.209116143 C19.8667459,0.193930806 19.8510029,0.179815801 19.8351926,0.166235961 C19.8299449,0.162088424 19.8246973,0.158409158 19.8204588,0.154729891 C19.8078105,0.144829319 19.7952296,0.135397017 19.7815722,0.126499881 C19.7763245,0.122820614 19.772086,0.119676513 19.7668383,0.116064142 C19.7489424,0.105093238 19.7321229,0.0946574992 19.7142943,0.0852251971 C19.7132179,0.0846900311 19.7132179,0.084154865 19.7122087,0.084154865 C19.6943128,0.0737191266 19.6743986,0.0653571567 19.654417,0.0569951868 C19.6502458,0.0549214183 19.6439217,0.0528476497 19.638674,0.0507069854 C19.6239402,0.0449539501 19.6092063,0.0392009149 19.5934633,0.0345182117 C19.5882156,0.0329796093 19.582968,0.030838945 19.5766438,0.0287651764 C19.5577388,0.0235473072 19.5377572,0.018329438 19.5177757,0.0146501713 C19.5177757,0.0141150052 19.5156901,0.0141150052 19.5156901,0.0135798391 C19.4946994,0.00990057235 19.4736414,0.00675647167 19.4525835,0.00468270314 C19.4462594,0.00361237099 19.4399352,0.00361237099 19.4336784,0.00314410068 C19.4189446,0.00160549822 19.4021251,0.00107033215 19.3863821,0.000535166073 C19.38322,0.000535166073 19.3790488,0 19.3748103,0 L5.02289713,0 C4.6265633,0 4.30544612,0.319226563 4.30544612,0.71330948 L4.30544612,14.2703371 L2.1527567,14.2703371 C0.965504449,14.2703371 0,15.2304251 0,16.4108676 L0,26.3991403 C0,27.5802519 0.965504449,28.5396708 2.1527567,28.5396708 L5.74088636,28.5396708 L5.74088636,33.5357137 C5.74088636,33.9287263 6.06200355,34.2485549 6.45833737,34.2485549 C6.8546712,34.2485549 7.17578838,33.9287263 7.17578838,33.5357137 L7.17578838,28.5396708 L8.61109407,28.5396708 L8.61109407,33.5357137 C8.61109407,33.9287263 8.93221125,34.2485549 9.32854508,34.2485549 C9.72481163,34.2485549 10.046467,33.9287263 10.046467,33.5357137 L10.046467,28.5396708 L11.4813018,28.5396708 L11.4813018,33.5357137 C11.4813018,33.9287263 11.8029572,34.2485549 12.1992237,34.2485549 C12.5955576,34.2485549 12.9166747,33.9287263 12.9166747,33.5357137 L12.9166747,28.5396708 L14.3520477,28.5396708 L14.3520477,33.5357137 C14.3520477,33.9287263 14.6731649,34.2485549 15.0694314,34.2485549 C15.4657653,34.2485549 15.7868824,33.9287263 15.7868824,33.5357137 L15.7868824,28.5396708 L17.2221881,28.5396708 L17.2221881,33.5357137 C17.2221881,33.9287263 17.5438435,34.2485549 17.9391009,34.2485549 C18.3363766,34.2485549 18.658032,33.9287263 18.658032,33.5357137 L18.658032,28.5396708 L20.0918576,28.5396708 L20.0918576,33.5357137 C20.0918576,33.9287263 20.4134458,34.2485549 20.8107887,34.2485549 C21.2060461,34.2485549 21.5277015,33.9287263 21.5277015,33.5357137 L21.5277015,28.5396708 L22.9635454,28.5396708 L22.9635454,33.5357137 C22.9635454,33.9287263 23.2841917,34.2485549 23.6804582,34.2485549 C24.0767248,34.2485549 24.397371,33.9287263 24.397371,33.5357137 L24.397371,28.5396708 L27.9859716,28.5396708 C29.1727529,28.5396708 30.1387283,27.5802519 30.1387283,26.3991403 L30.1387283,16.4109345 C30.1385938,15.2304251 29.1726184,14.270404 27.9858371,14.270404 Z M20.0917231,2.43634355 L23.382821,5.70828202 L20.0917231,5.70828202 L20.0917231,2.43634355 Z M5.74081908,1.42722102 L18.6578975,1.42722102 L18.6578975,6.4216584 C18.6578975,6.81567442 18.9785437,7.13496788 19.3748103,7.13496788 L24.3972365,7.13496788 L24.3972365,15.6970899 L5.74081908,15.6970899 L5.74081908,1.42722102 Z M8.61095951,27.1141222 L7.17565383,27.1141222 L7.17565383,25.6864329 L8.61095951,25.6864329 L8.61095951,27.1141222 Z M11.4811672,27.1141222 L10.0463325,27.1141222 L10.0463325,25.6864329 L11.4811672,25.6864329 L11.4811672,27.1141222 Z M14.3519132,27.1141222 L12.9165402,27.1141222 L12.9165402,25.6864329 L14.3519132,25.6864329 L14.3519132,27.1141222 Z M17.2220536,27.1141222 L15.7867479,27.1141222 L15.7867479,25.6864329 L17.2220536,25.6864329 L17.2220536,27.1141222 Z M20.0917231,27.1141222 L18.6578975,27.1141222 L18.6578975,25.6864329 L20.0917231,25.6864329 L20.0917231,27.1141222 Z M22.9634109,27.1141222 L21.527567,27.1141222 L21.527567,25.6864329 L22.9634109,25.6864329 L22.9634109,27.1141222 Z M28.7028171,26.3991403 C28.7028171,26.7932232 28.3811617,27.1141222 27.9859043,27.1141222 L24.3973037,27.1141222 L24.3973037,25.6864329 L25.1162349,25.6864329 C25.5114922,25.6864329 25.8331477,25.3666043 25.8331477,24.9735917 C25.8331477,24.5785053 25.5114922,24.2586098 25.1162349,24.2586098 L5.02289713,24.2586098 C4.6265633,24.2586098 4.30544612,24.5784385 4.30544612,24.9735917 C4.30544612,25.3666043 4.6265633,25.6864329 5.02289713,25.6864329 L5.74081908,25.6864329 L5.74081908,27.1141222 L2.1527567,27.1141222 C1.75702837,27.1141222 1.43530569,26.7932232 1.43530569,26.3991403 L1.43530569,16.4109345 C1.43530569,16.0174537 1.7569611,15.6970899 2.1527567,15.6970899 L4.3055134,15.6970899 L4.3055134,16.4109345 C4.3055134,16.8050174 4.62663058,17.1243109 5.02296441,17.1243109 L25.1162349,17.1243109 C25.5114922,17.1243109 25.8331477,16.8050174 25.8331477,16.4109345 L25.8331477,15.6970899 L27.9859043,15.6970899 C28.3811617,15.6970899 28.7028171,16.0174537 28.7028171,16.4109345 L28.7028171,26.3991403 Z" id="Shape"></path>
                            <path d="M12.3297152,2.73988439 C9.55999664,2.73988439 7.30635838,4.99352265 7.30635838,7.76324125 C7.30635838,10.5330271 9.55999664,12.7861272 12.3297152,12.7861272 C15.0994338,12.7861272 17.3526012,10.5330271 17.3526012,7.76324125 C17.3526012,4.99352265 15.0995011,2.73988439 12.3297152,2.73988439 Z M12.3297195,11.416185 C10.3149377,11.416185 8.67630058,9.77758561 8.67630058,7.76324554 C8.67630058,5.74842595 10.3148692,4.10982659 12.3297195,4.10982659 C14.3440218,4.10982659 15.982659,5.74842595 15.982659,7.76324554 C15.982659,9.77758561 14.3440218,11.416185 12.3297195,11.416185 Z" id="Shape"></path>
                            <path d="M12.1013808,5.02312139 C11.7231779,5.02312139 11.416185,5.35060812 11.416185,5.75405861 L11.416185,7.94584283 C11.416185,8.34936183 11.7231779,8.67630058 12.1013808,8.67630058 C12.479648,8.67630058 12.7861272,8.34936183 12.7861272,7.94584283 L12.7861272,5.75405861 C12.7861272,5.35060812 12.479648,5.02312139 12.1013808,5.02312139 Z" id="Shape"></path>
                            <path d="M12.1013808,9.13294798 C11.6445836,9.33760991 11.416185,9.56600853 11.416185,9.81814381 C11.416185,10.196411 11.7231779,10.5028902 12.1013808,10.5028902 C12.479648,10.5028902 12.7861272,10.196411 12.7861272,9.81814381 C12.7861272,9.56600853 12.5578784,9.33760991 12.1013808,9.13294798 Z" id="Shape"></path>
                        </g>
                    </g>
                </g>
            </g>
        </g>
    </g>
</svg>