<?xml version="1.0" encoding="UTF-8"?>
<svg width="79px" height="81px" viewBox="0 0 79 81" version="1.1" xmlns="http://www.w3.org/2000/svg" xmlns:xlink="http://www.w3.org/1999/xlink">
    <!-- Generator: Sketch 46.2 (44496) - http://www.bohemiancoding.com/sketch -->
    <title>item menu</title>
    <desc>Created with Sketch.</desc>
    <defs></defs>
    <g id="paginadorCarpetaInvestigación-Correcciones" stroke="none" stroke-width="1" fill="none" fill-rule="evenodd">
        <g id="Detalle-de-caso-NIC" transform="translate(-179.000000, -1043.000000)">
            <g id="Detalle-pre-denuncia" transform="translate(133.000000, 649.000000)">
                <g id="Solicitudes-Preliminares" transform="translate(46.000000, 394.000000)">
                    <g id="Preliminares">
                        <g id="item-menu">
                            <ellipse id="Oval-2" fill="#CF455D" cx="39.5" cy="40.5" rx="39.5" ry="40.5"></ellipse>
                            <g id="police-cap" transform="translate(19.000000, 23.000000)" fill-rule="nonzero" fill="#FFFFFF">
                                <path d="M40.909671,14.8418653 L35.7847148,5.24222318 C35.7847148,5.24222318 35.7847148,5.24162316 35.7847148,5.24102314 C35.7734232,5.22227252 35.7622116,5.20412192 35.75092,5.18597132 C35.7484375,5.18184619 35.7459549,5.17779605 35.7433923,5.17427094 C35.7321006,5.15724537 35.7196078,5.14089483 35.7071149,5.12446929 C35.703351,5.12034415 35.6995872,5.11509398 35.6958233,5.11036882 C35.685813,5.09686838 35.6733201,5.08456797 35.6607472,5.07166755 C35.6545007,5.06461731 35.6482543,5.05756708 35.6420079,5.05119187 C35.6319976,5.04061652 35.620706,5.03124121 35.6094944,5.0218659 C35.5994841,5.01309061 35.5907551,5.00431532 35.5807448,4.99606505 C35.5707345,4.9884148 35.5607242,4.98143957 35.5507139,4.97378931 C35.538221,4.964414 35.5257282,4.95503869 35.5131552,4.94686342 C35.5106727,4.94513837 35.5081901,4.94273829 35.5044262,4.94101323 C35.4968985,4.93636308 35.4893707,4.93223794 35.4819231,4.92751278 C35.4694302,4.91986253 35.455656,4.91168726 35.4418819,4.90463703 C35.429389,4.89818682 35.4180974,4.89233662 35.4056045,4.88648643 C35.3931116,4.88063624 35.3806188,4.87538606 35.3693272,4.87006089 C35.3542717,4.86361067 35.3392962,4.8583605 35.3255221,4.85303532 C35.3179943,4.85071025 35.3117479,4.84778515 35.3055014,4.84538507 L20.7839915,0.045676509 C20.6000422,-0.015225503 20.399836,-0.015225503 20.2158867,0.045676509 L5.69493732,4.84553508 C5.68869089,4.84786015 5.68244446,4.85078525 5.67619803,4.85318533 C5.66114253,4.8584355 5.64680777,4.86376068 5.63239293,4.86961087 C5.61990007,4.87486104 5.60796779,4.88018622 5.59611559,4.88603641 C5.58362272,4.89188661 5.57112986,4.8977368 5.55855692,4.90418701 C5.5454234,4.91123725 5.53228988,4.9188125 5.51979702,4.92706277 C5.51226927,4.93118791 5.50474152,4.93523804 5.49729385,4.9399632 C5.49417063,4.94168825 5.49104742,4.94408833 5.4879242,4.94641341 C5.47479068,4.9551887 5.46293848,4.96396399 5.45036554,4.97281428 C5.44035523,4.98046453 5.42978435,4.98803978 5.41977404,4.99621505 C5.40976374,5.00439032 5.40039409,5.0126406 5.39102444,5.02141589 C5.37973282,5.03139122 5.36916194,5.04076653 5.35851097,5.05126687 C5.35162388,5.05831711 5.34473679,5.06589236 5.3378497,5.07354261 C5.3259975,5.08584301 5.31470587,5.0975434 5.30405491,5.11044383 C5.29844914,5.11689404 5.2940446,5.12394427 5.28899941,5.13039449 C5.27770778,5.14449495 5.26649624,5.15912044 5.25648594,5.17434594 C5.2520814,5.18079615 5.24831753,5.18784638 5.24399308,5.1942966 C5.23462343,5.2095221 5.22461312,5.22534762 5.21580405,5.24117315 C5.2151634,5.24237319 5.21452274,5.24349822 5.21396216,5.24469826 L0.0889259253,14.922718 C-0.0656331936,15.2150776 -0.0155816654,15.5654892 0.214655364,15.8092473 L5.97898976,21.9027486 L5.97898976,23.2000664 C5.97898976,23.2527932 5.98523619,23.3055199 5.99588715,23.3571216 C6.12914434,23.9804672 6.84604239,25.0176015 8.42887191,25.8895053 C10.9706887,27.2898015 15.03215,28 20.4999391,28 C25.9677282,28 30.0291094,27.2898015 32.5715669,25.8895053 C34.1544765,25.0176015 34.8713745,23.9804672 35.003911,23.3571216 C35.0152026,23.3055199 35.021449,23.2527932 35.021449,23.2000664 L35.021449,21.9004235 L40.788346,15.7271946 C41.0173018,15.4823115 41.0648707,15.1324999 40.909671,14.8418653 Z M20.4999391,26.3990721 C12.0211301,26.3990721 9.09323588,24.6331388 8.12167565,23.6512063 C9.82206621,23.2058416 13.8172192,22.399565 20.4999391,22.399565 C27.1488642,22.399565 31.1653191,23.2070417 32.8769212,23.6535314 C31.9022378,24.6355389 28.9732224,26.3990721 20.4999391,26.3990721 Z M33.3123295,22.1019552 C31.4468089,21.614439 27.3151954,20.8001371 20.4999391,20.8001371 C13.6852434,20.8001371 9.55306928,21.614439 7.68754872,22.1019552 L7.68754872,21.3743561 C9.08266499,20.9747429 13.2285332,19.9997107 20.4999391,19.9997107 C27.7857599,19.9997107 31.9234596,20.9747429 33.3123295,21.3743561 L33.3123295,22.1019552 Z M33.3123295,19.7032259 C31.4455276,19.2157098 27.3064664,18.4002079 20.4999391,18.4002079 C13.7021408,18.4002079 9.55683315,19.2169098 7.68754872,19.7044259 L7.68754872,18.4002079 C7.68754872,18.1845757 8.16740273,17.1685172 10.5159005,16.1221576 C12.2794761,15.3369567 15.4425725,14.3994257 20.4999391,14.3994257 C25.4734593,14.3994257 28.6466461,15.3603574 30.4320042,16.1666341 C32.5991152,17.1438414 33.3023192,18.1458745 33.3123295,18.4001329 L33.3123295,19.7032259 L33.3123295,19.7032259 Z M35.021449,19.4711682 L35.021449,18.4002079 C35.021449,17.2142687 33.566351,15.8150975 31.225381,14.7475122 C29.2747328,13.8588078 25.8301466,12.8000729 20.4999391,12.8000729 C11.0251448,12.8000729 5.97898976,16.0518803 5.97898976,18.4002829 L5.97898976,19.4899939 L1.8750047,15.1512505 L6.09655079,7.17871215 L10.3663065,13.0304055 C10.5320772,13.257063 10.7998729,13.378942 11.0726337,13.378942 C11.2384043,13.378942 11.406097,13.3337905 11.5536889,13.2395124 C11.9428095,12.9905792 12.0429126,12.4924877 11.7770389,12.1280507 L7.31148156,6.00807348 L20.499859,1.64885447 L33.6851133,6.00687344 L29.1920076,12.1256506 C28.924292,12.4900876 29.0231938,12.9881791 29.4122343,13.2383123 C29.5599063,13.3332655 29.7288002,13.378942 29.8951315,13.378942 C30.166691,13.378942 30.4344066,13.258263 30.5996167,13.0327305 L34.9038079,7.17053688 L39.1254341,15.0774481 L35.021449,19.4711682 Z" id="Shape"></path>
                                <path d="M24.495735,7.60719315 L24.4912011,7.59965747 C24.3747022,7.39330162 24.2546684,7.18047574 24.1646046,6.94382493 C24.0529471,6.65183635 24.0529471,6.65183635 24.3614847,6.34203616 L24.6760163,6.02447193 C24.6772458,6.02325404 24.6796281,6.02211227 24.6807808,6.02028544 C24.8572965,5.84019029 24.954507,5.60293054 24.954507,5.35311132 C24.954507,5.06827783 24.8272497,4.800647 24.6063168,4.6181922 L24.5738877,4.59139867 C24.5715054,4.58964795 24.5702759,4.58843007 24.5691232,4.58721218 L22.9158534,3.23680304 C22.7369554,3.08395814 22.5111811,3.00015224 22.275878,3.00015224 C22.257896,3.00015224 22.2398371,3.00076118 22.2230078,3.00190295 C21.9805579,3.01499524 21.753631,3.11607992 21.5824944,3.28734539 C21.5752709,3.29450048 21.5680473,3.30165557 21.5615154,3.30873454 C21.494275,3.38188392 21.4270345,3.45564225 21.3923,3.49484301 C21.3905325,3.49248335 21.3886882,3.49065652 21.3869208,3.48829686 C21.3100745,3.40327307 21.2212403,3.31528069 21.1431645,3.24624167 L21.1365558,3.24030447 C21.114962,3.22127498 21.0921386,3.20346337 21.0687005,3.18679353 C20.9090141,3.0732255 20.7235073,3.00898192 20.5337739,3.00121789 C20.5091831,3 20.4851303,3 20.4611542,3.00121789 C20.2540536,3.01073264 20.0517944,3.08806851 19.8902636,3.21830637 C19.8806578,3.22607041 19.8704373,3.23436727 19.8608315,3.24266413 C19.7822178,3.31345385 19.6926919,3.40144624 19.614693,3.48647003 C19.6129255,3.48882969 19.6104665,3.49179829 19.6080842,3.49423406 C19.605702,3.49187441 19.6038577,3.48951475 19.6014754,3.48707897 C19.5744256,3.45678402 19.5107969,3.38660324 19.4490125,3.31878211 C19.4381772,3.30690771 19.426804,3.2950333 19.4153539,3.28369172 C19.2280028,3.1011608 18.9818643,3 18.7225851,3 C18.4896642,3 18.2657343,3.08205519 18.0898332,3.23193149 L16.4203489,4.59604186 C16.4173519,4.59840152 16.4143549,4.60076118 16.4113579,4.6038059 L16.3891493,4.62222645 C16.1712134,4.8052902 16.0463383,5.0710942 16.0463383,5.3530352 C16.0463383,5.60277831 16.1436256,5.83950523 16.3195266,6.01960038 C16.3212941,6.02135109 16.3231384,6.02317793 16.3249059,6.02492864 L16.6394375,6.34127498 C16.9474372,6.65168411 16.9474372,6.65168411 16.8363175,6.94367269 C16.7432567,7.18686965 16.6171521,7.40860133 16.503727,7.60841104 C16.2678091,8.02766889 16,8.50211227 16,9.12536632 C16,9.90489058 16.2659648,10.6119505 16.769615,11.1708849 C17.2499039,11.7043197 17.9126258,12.0777545 18.7404903,12.2810657 C19.4735265,12.460628 19.5137171,12.4921408 19.8907247,12.787098 C20.0168293,12.8869648 20.1735188,12.954177 20.355337,12.9869077 C20.4039806,12.9952046 20.4526243,13 20.5018059,13 C20.5096442,13 20.5180204,13 20.5257819,12.9993911 C20.7383386,12.9934539 20.9454392,12.9179448 21.1063552,12.7900666 C21.485745,12.4921408 21.5253208,12.4612369 22.2601245,12.2809895 C23.087451,12.0776784 23.7502498,11.7042436 24.2316145,11.1708088 C24.73465,10.6112655 25,9.90420552 25,9.1252902 C25,8.50150333 24.7322677,8.02698382 24.495735,7.60719315 Z M23.0083762,10.0900095 C22.7514024,10.374843 22.3671713,10.5818078 21.8653654,10.7048906 C21.1371705,10.883844 20.8154154,11.0080685 20.5001921,11.2138915 C20.18689,11.0087536 19.8656728,10.8844529 19.1350188,10.7054995 C18.6337509,10.5818078 18.2495966,10.374843 17.9932375,10.0900095 C17.7579344,9.82953378 17.6390533,9.50489058 17.6390533,9.12551855 C17.6390533,8.9352236 17.7518635,8.72589914 17.9349881,8.40072312 C18.0677015,8.16643197 18.233382,7.87566127 18.3696304,7.51760228 C18.7736879,6.45857279 18.3630216,5.80745956 18.0040729,5.40723121 L18.659648,4.87143673 C18.8703604,5.06705994 19.1711366,5.26215033 19.5865673,5.26215033 C19.9714132,5.26215033 20.27388,5.08966698 20.500269,4.9018078 C20.7265811,5.0897431 21.0292016,5.26215033 21.4140475,5.26215033 C21.8306309,5.26215033 22.1307154,5.06652712 22.3408899,4.87204567 L22.9964651,5.40723121 C22.638669,5.80685062 22.2267732,6.45796384 22.6314455,7.51760228 C22.7646968,7.86789724 22.9292246,8.15805899 23.0600938,8.3917412 L23.0660878,8.40125595 C23.2498271,8.72589914 23.3614847,8.93461465 23.3614847,9.12551855 C23.361331,9.5049667 23.2425267,9.82953378 23.0083762,10.0900095 Z" id="Shape"></path>
                            </g>
                        </g>
                    </g>
                </g>
            </g>
        </g>
    </g>
</svg>