
<svg width="62px" height="88px" viewBox="0 0 62 88" version="1.1" xmlns="http://www.w3.org/2000/svg" xmlns:xlink="http://www.w3.org/1999/xlink">
    <!-- Generator: Sketch 46.2 (44496) - http://www.bohemiancoding.com/sketch -->
    <desc>Created with Sketch.</desc>
    <defs></defs>
    <g id="paginadorCarpetaInvestigación-Correcciones" stroke="none" stroke-width="1" fill="none" fill-rule="evenodd">
        <g id="Detalle-de-caso-NIC" transform="translate(-447.000000, -1658.000000)" fill-rule="nonzero">
            <g id="Detalle-pre-denuncia" transform="translate(-46.000000, 649.000000)">
                <g id="Acuerdos" transform="translate(230.000000, 876.000000)">
                    <g id="Card-Menu-Copy-4" transform="translate(0.000000, 102.000000)">
                        <g id="051-agreement" transform="translate(263.000000, 31.000000)">
                            <rect id="Rectangle-path" fill="#F1F2F2" x="1.82951381" y="1.78960773" width="58.3411436" height="84.1113923"></rect>
                            <path d="M60.1704862,87.6906077 L1.82951381,87.6906077 C0.841110497,87.6906077 0.0399060773,86.8894033 0.0399060773,85.901 L0.0399060773,1.78960773 C0.0399060773,0.80120442 0.841110497,0 1.82951381,0 L60.1706575,0 C61.1590608,0 61.9602652,0.80120442 61.9602652,1.78960773 L61.9602652,85.901 C61.9600939,86.8894033 61.1588895,87.6906077 60.1704862,87.6906077 Z M3.61912155,84.1113923 L58.3810497,84.1113923 L58.3810497,3.57921547 L3.61912155,3.57921547 L3.61912155,84.1113923 Z" id="Shape" fill="#000000"></path>
                            <path d="M53.548989,11.2745801 L53.524326,11.2745801 C52.5359227,11.2745801 51.7347182,10.4733757 51.7347182,9.48497238 C51.7347182,8.49656906 52.5359227,7.69536464 53.524326,7.69536464 L53.548989,7.69536464 C54.5373923,7.69536464 55.3385967,8.49656906 55.3385967,9.48497238 C55.3385967,10.4733757 54.5373923,11.2745801 53.548989,11.2745801 Z" id="Shape" fill="#000000"></path>
                            <path d="M48.1798232,11.2745801 L8.45101105,11.2745801 C7.46260773,11.2745801 6.66140331,10.4733757 6.66140331,9.48497238 C6.66140331,8.49656906 7.46260773,7.69536464 8.45101105,7.69536464 L48.1798232,7.69536464 C49.1682265,7.69536464 49.9694309,8.49656906 49.9694309,9.48497238 C49.9694309,10.4733757 49.1682265,11.2745801 48.1798232,11.2745801 Z" id="Shape" fill="#000000"></path>
                            <path d="M53.548989,19.5067072 L53.524326,19.5067072 C52.5359227,19.5067072 51.7347182,18.7055028 51.7347182,17.7170994 C51.7347182,16.7286961 52.5359227,15.9274917 53.524326,15.9274917 L53.548989,15.9274917 C54.5373923,15.9274917 55.3385967,16.7286961 55.3385967,17.7170994 C55.3385967,18.7055028 54.5373923,19.5067072 53.548989,19.5067072 Z" id="Shape" fill="#000000"></path>
                            <path d="M48.1798232,19.5067072 L8.45101105,19.5067072 C7.46260773,19.5067072 6.66140331,18.7055028 6.66140331,17.7170994 C6.66140331,16.7286961 7.46260773,15.9274917 8.45101105,15.9274917 L48.1798232,15.9274917 C49.1682265,15.9274917 49.9694309,16.7286961 49.9694309,17.7170994 C49.9694309,18.7055028 49.1682265,19.5067072 48.1798232,19.5067072 Z" id="Shape" fill="#000000"></path>
                            <path d="M53.548989,27.7388343 L53.524326,27.7388343 C52.5359227,27.7388343 51.7347182,26.9376298 51.7347182,25.9492265 C51.7347182,24.9608232 52.5359227,24.1596188 53.524326,24.1596188 L53.548989,24.1596188 C54.5373923,24.1596188 55.3385967,24.9608232 55.3385967,25.9492265 C55.3385967,26.9376298 54.5373923,27.7388343 53.548989,27.7388343 Z" id="Shape" fill="#000000"></path>
                            <path d="M48.1798232,27.7388343 L8.45101105,27.7388343 C7.46260773,27.7388343 6.66140331,26.9376298 6.66140331,25.9492265 C6.66140331,24.9608232 7.46260773,24.1596188 8.45101105,24.1596188 L48.1798232,24.1596188 C49.1682265,24.1596188 49.9694309,24.9608232 49.9694309,25.9492265 C49.9694309,26.9376298 49.1682265,27.7388343 48.1798232,27.7388343 Z" id="Shape" fill="#000000"></path>
                            <path d="M53.548989,35.9709613 L53.524326,35.9709613 C52.5359227,35.9709613 51.7347182,35.1697569 51.7347182,34.1813536 C51.7347182,33.1929503 52.5359227,32.3917459 53.524326,32.3917459 L53.548989,32.3917459 C54.5373923,32.3917459 55.3385967,33.1929503 55.3385967,34.1813536 C55.3385967,35.1697569 54.5373923,35.9709613 53.548989,35.9709613 Z" id="Shape" fill="#000000"></path>
                            <path d="M48.1798232,35.9709613 L8.45101105,35.9709613 C7.46260773,35.9709613 6.66140331,35.1697569 6.66140331,34.1813536 C6.66140331,33.1929503 7.46260773,32.3917459 8.45101105,32.3917459 L48.1798232,32.3917459 C49.1682265,32.3917459 49.9694309,33.1929503 49.9694309,34.1813536 C49.9694309,35.1697569 49.1682265,35.9709613 48.1798232,35.9709613 Z" id="Shape" fill="#000000"></path>
                            <path d="M53.548989,44.2032597 L53.524326,44.2032597 C52.5359227,44.2032597 51.7347182,43.4020552 51.7347182,42.4136519 C51.7347182,41.4252486 52.5359227,40.6240442 53.524326,40.6240442 L53.548989,40.6240442 C54.5373923,40.6240442 55.3385967,41.4252486 55.3385967,42.4136519 C55.3385967,43.4020552 54.5373923,44.2032597 53.548989,44.2032597 Z" id="Shape" fill="#000000"></path>
                            <path d="M48.1798232,44.2032597 L8.45101105,44.2032597 C7.46260773,44.2032597 6.66140331,43.4020552 6.66140331,42.4136519 C6.66140331,41.4252486 7.46260773,40.6240442 8.45101105,40.6240442 L48.1798232,40.6240442 C49.1682265,40.6240442 49.9694309,41.4252486 49.9694309,42.4136519 C49.9694309,43.4020552 49.1682265,44.2032597 48.1798232,44.2032597 Z" id="Shape" fill="#000000"></path>
                            <path d="M53.548989,52.4353867 L53.524326,52.4353867 C52.5359227,52.4353867 51.7347182,51.6341823 51.7347182,50.645779 C51.7347182,49.6573757 52.5359227,48.8561713 53.524326,48.8561713 L53.548989,48.8561713 C54.5373923,48.8561713 55.3385967,49.6573757 55.3385967,50.645779 C55.3385967,51.6341823 54.5373923,52.4353867 53.548989,52.4353867 Z" id="Shape" fill="#000000"></path>
                            <path d="M48.1798232,52.4353867 L8.45101105,52.4353867 C7.46260773,52.4353867 6.66140331,51.6341823 6.66140331,50.645779 C6.66140331,49.6573757 7.46260773,48.8561713 8.45101105,48.8561713 L48.1798232,48.8561713 C49.1682265,48.8561713 49.9694309,49.6573757 49.9694309,50.645779 C49.9694309,51.6341823 49.1682265,52.4353867 48.1798232,52.4353867 Z" id="Shape" fill="#000000"></path>
                            <path d="M53.548989,60.6675138 L53.524326,60.6675138 C52.5359227,60.6675138 51.7347182,59.8663094 51.7347182,58.8779061 C51.7347182,57.8895028 52.5359227,57.0882983 53.524326,57.0882983 L53.548989,57.0882983 C54.5373923,57.0882983 55.3385967,57.8895028 55.3385967,58.8779061 C55.3385967,59.8663094 54.5373923,60.6675138 53.548989,60.6675138 Z" id="Shape" fill="#000000"></path>
                            <path d="M48.1798232,60.6675138 L8.45101105,60.6675138 C7.46260773,60.6675138 6.66140331,59.8663094 6.66140331,58.8779061 C6.66140331,57.8895028 7.46260773,57.0882983 8.45101105,57.0882983 L48.1798232,57.0882983 C49.1682265,57.0882983 49.9694309,57.8895028 49.9694309,58.8779061 C49.9694309,59.8663094 49.1682265,60.6675138 48.1798232,60.6675138 Z" id="Shape" fill="#000000"></path>
                            <path d="M39.7865304,68.8998122 L24.4906851,68.8998122 C23.5022818,68.8998122 22.7010773,68.0986077 22.7010773,67.1102044 C22.7010773,66.1218011 23.5022818,65.3205967 24.4906851,65.3205967 L39.7865304,65.3205967 C40.7749337,65.3205967 41.5761381,66.1218011 41.5761381,67.1102044 C41.5761381,68.0986077 40.7749337,68.8998122 39.7865304,68.8998122 Z" id="Shape" fill="#000000"></path>
                            <circle id="Oval" fill="#DA3A3F" cx="49.4328398" cy="71.2261823" r="4.11614917"></circle>
                            <path d="M39.7865304,77.1319392 L24.4906851,77.1319392 C23.5022818,77.1319392 22.7010773,76.3307348 22.7010773,75.3423315 C22.7010773,74.3539282 23.5022818,73.5527238 24.4906851,73.5527238 L39.7865304,73.5527238 C40.7749337,73.5527238 41.5761381,74.3539282 41.5761381,75.3423315 C41.5761381,76.3307348 40.7749337,77.1319392 39.7865304,77.1319392 Z" id="Shape" fill="#000000"></path>
                            <path d="M49.4328398,77.1319392 C46.1764696,77.1319392 43.5270829,74.4825525 43.5270829,71.2261823 C43.5270829,67.9698122 46.1764696,65.3204254 49.4328398,65.3204254 C52.6892099,65.3204254 55.3385967,67.9698122 55.3385967,71.2261823 C55.3385967,74.4825525 52.6892099,77.1319392 49.4328398,77.1319392 Z M49.4328398,68.8998122 C48.1500221,68.8998122 47.1062983,69.9435359 47.1062983,71.2263536 C47.1062983,72.5091713 48.1500221,73.552895 49.4328398,73.552895 C50.7156575,73.552895 51.7593812,72.5091713 51.7593812,71.2263536 C51.7593812,69.9435359 50.7156575,68.8998122 49.4328398,68.8998122 Z" id="Shape" fill="#000000"></path>
                        </g>
                    </g>
                </g>
            </g>
        </g>
    </g>
</svg>