<svg width="85px" height="89px" viewBox="0 0 85 89" version="1.1" xmlns="http://www.w3.org/2000/svg" xmlns:xlink="http://www.w3.org/1999/xlink">
    <!-- Generator: Sketch 46.2 (44496) - http://www.bohemiancoding.com/sketch -->
    <desc>Created with Sketch.</desc>
    <defs></defs>
    <g id="paginadorCarpetaInvestigación-Correcciones" stroke="none" stroke-width="1" fill="none" fill-rule="evenodd">
        <g id="Detalle-de-caso-NIC" transform="translate(-1129.000000, -1175.000000)" fill-rule="nonzero">
            <g id="Detalle-pre-denuncia" transform="translate(-46.000000, 649.000000)">
                <g id="Solicitudes-Preliminares" transform="translate(225.000000, 394.000000)">
                    <g id="Row" transform="translate(0.000000, 107.000000)">
                        <g id="Card-Menu-Copy-2" transform="translate(710.000000, 0.000000)">
                            <g id="051-contract" transform="translate(240.000000, 25.000000)">
                                <polygon id="Shape" fill="#E6E9ED" points="65.3713923 12.1361687 54.315 1.07977642 53.2352236 0 51.7131707 0 3.79839431 0 0.113851626 0 0.113851626 3.68730691 0.113851626 84.7700508 0.113851626 88.4518293 3.79839431 88.4518293 62.7693902 88.4518293 66.4511687 88.4518293 66.4511687 84.7700508 66.4511687 14.7436992 66.4511687 13.2159451"></polygon>
                                <g id="Group" transform="translate(11.056911, 47.855691)" fill="#434A54">
                                    <path d="M1.95707317,3.7448374 L42.4968902,3.7448374 C43.5118801,3.7448374 44.3378659,2.91885163 44.3378659,1.8985061 C44.3378659,0.88351626 43.5118801,0.0575304878 42.4968902,0.0575304878 L1.95707317,0.0575304878 C0.936727642,0.0575304878 0.113506098,0.88351626 0.113506098,1.8985061 C0.113678862,2.91867886 0.936900407,3.7448374 1.95707317,3.7448374 Z" id="Shape"></path>
                                    <path d="M42.497063,11.1140955 L1.95707317,11.1140955 C0.936727642,11.1140955 0.113506098,11.9400813 0.113506098,12.9548984 C0.113506098,13.9752439 0.936727642,14.8014024 1.95707317,14.8014024 L42.4968902,14.8014024 C43.5118801,14.8014024 44.3378659,13.9754167 44.3378659,12.9548984 C44.3378659,11.9400813 43.5120528,11.1140955 42.497063,11.1140955 Z" id="Shape"></path>
                                    <path d="M22.2264634,22.170315 L1.95707317,22.170315 C0.936727642,22.170315 0.113506098,22.9963008 0.113506098,24.0112907 C0.113506098,25.0316362 0.936727642,25.8577947 1.95707317,25.8577947 L22.2262907,25.8577947 C23.2440447,25.8577947 24.0700305,25.0318089 24.0700305,24.0112907 C24.0702033,22.9963008 23.2440447,22.170315 22.2264634,22.170315 Z" id="Shape"></path>
                                </g>
                                <polygon id="Shape" fill="#E6E9ED" points="79.9587398 58.9319512 75.0622561 58.9319512 70.1386484 76.132185 77.5079065 81.0447358 84.8823476 76.132185"></polygon>
                                <path d="M77.5079065,11.0187297 C73.4372358,11.0187297 70.1386484,14.3173171 70.1386484,18.387815 L70.1386484,68.1420122 L84.8825203,68.1420122 L84.8825203,18.387815 C84.8823476,14.3173171 81.5782317,11.0187297 77.5079065,11.0187297 Z" id="Shape" fill="#656D78"></path>
                                <polygon id="Shape" fill="#CCD1D9" points="66.4511687 13.2159451 53.2352236 13.2159451 53.2352236 0"></polygon>
                                <path d="M26.0060264,36.8120833 C24.9882724,36.8120833 24.1636687,35.9874797 24.1636687,34.9697256 L24.1636687,12.7422256 C24.1636687,11.7232622 24.9882724,10.8986585 26.0060264,10.8986585 C27.0237805,10.8986585 27.8483841,11.7232622 27.8483841,12.7422256 L27.8483841,34.9698984 C27.8483841,35.9874797 27.0236077,36.8120833 26.0060264,36.8120833 Z" id="Shape" fill="#F6BB42"></path>
                                <path d="M33.3764939,36.8120833 L18.6355589,36.8120833 C17.6178049,36.8120833 16.7918191,35.9874797 16.7918191,34.9697256 C16.7918191,33.9519715 17.6178049,33.1273679 18.6355589,33.1273679 L33.3764939,33.1273679 C34.394248,33.1273679 35.2202337,33.9519715 35.2202337,34.9697256 C35.2202337,35.9874797 34.3940752,36.8120833 33.3764939,36.8120833 Z" id="Shape" fill="#434A54"></path>
                                <path d="M37.0786585,18.3850508 L14.9657012,18.3850508 C13.9479472,18.3850508 13.1235163,17.5604472 13.1235163,16.5428659 C13.1235163,15.5239024 13.9479472,14.6992988 14.9657012,14.6992988 L37.0786585,14.6992988 C38.0964126,14.6992988 38.9223984,15.5239024 38.9223984,16.5428659 C38.9223984,17.5604472 38.0962398,18.3850508 37.0786585,18.3850508 Z" id="Shape" fill="#FFCE54"></path>
                                <g id="Group" transform="translate(11.056911, 21.941057)" fill="#434A54">
                                    <path d="M5.59859756,3.81463415 L1.91267276,3.81463415 C0.894918699,3.81463415 0.0704878049,2.99003049 0.0704878049,1.97227642 C0.0704878049,0.954695122 0.894918699,0.129918699 1.91267276,0.129918699 L5.59859756,0.129918699 C6.61635163,0.129918699 7.44095528,0.954522358 7.44095528,1.97227642 C7.44095528,2.99003049 6.61635163,3.81463415 5.59859756,3.81463415 Z" id="Shape"></path>
                                    <path d="M27.831626,3.81463415 L24.1470833,3.81463415 C23.1281199,3.81463415 22.3033435,2.99003049 22.3033435,1.97227642 C22.3033435,0.954695122 23.1279472,0.129918699 24.1470833,0.129918699 L27.831626,0.129918699 C28.8493801,0.129918699 29.6751931,0.954522358 29.6751931,1.97227642 C29.6750203,2.99003049 28.8492073,3.81463415 27.831626,3.81463415 Z" id="Shape"></path>
                                </g>
                            </g>
                        </g>
                    </g>
                </g>
            </g>
        </g>
    </g>
</svg>