<svg width="85px" height="89px" viewBox="0 0 85 89" version="1.1" xmlns="http://www.w3.org/2000/svg" xmlns:xlink="http://www.w3.org/1999/xlink">
    <!-- Generator: Sketch 46.2 (44496) - http://www.bohemiancoding.com/sketch -->
    <desc>Created with Sketch.</desc>
    <defs></defs>
    <g id="paginadorCarpetaInvestigación-Correcciones" stroke="none" stroke-width="1" fill="none" fill-rule="evenodd">
        <g id="Detalle-de-caso-NIC" transform="translate(-418.000000, -1177.000000)" fill-rule="nonzero">
            <g id="Detalle-pre-denuncia" transform="translate(-46.000000, 649.000000)">
                <g id="Solicitudes-Preliminares" transform="translate(225.000000, 394.000000)">
                    <g id="Row" transform="translate(0.000000, 107.000000)">
                        <g id="Card-Menu">
                            <g id="051-detective" transform="translate(239.000000, 27.000000)">
                                <path d="M77.9227959,68.8673469 L77.6084694,68.7778367 C73.0169082,67.5418673 71.4640102,66.3601939 69.4203673,65.5795816 C62.1702143,62.8177755 60.2839082,60.8282551 59.8014898,59.8878776 C59.7825816,59.8552653 59.7688776,59.817449 59.7527449,59.7822347 L59.6932449,51.3609898 L42.4984388,51.1660102 L25.3039796,51.3611633 L25.2443061,59.7824082 C25.228,59.8176224 25.2144694,59.8556122 25.1955612,59.888051 C24.7131429,60.8284286 22.8268367,62.817949 15.5765102,65.5797551 C13.5330408,66.3603673 11.9799694,67.5420408 7.38858163,68.7780102 L7.0742551,68.8675204 C2.89485714,70.246949 0.0815306122,74.1257245 0.0815306122,78.500102 L0.0815306122,88.8130306 L42.4984388,88.8130306 L84.9153469,88.8130306 L84.9153469,78.500102 C84.9153469,74.1253776 82.1020204,70.2467755 77.9227959,68.8673469 Z" id="Shape" fill="#434A54"></path>
                                <polygon id="Shape" fill="#CCD1D9" points="54.3125714 65.4279694 43.5201735 59.0668469 28.4859286 67.6339796 34.2291531 88.8128571 49.7269082 88.8128571 56.0854286 72.0572755"></polygon>
                                <polygon id="Shape" fill="#DA4453" points="46.4799082 70.306449 38.7988571 70.306449 34.6926633 85.6798265 35.6953163 88.8128571 49.7269082 88.8128571 50.1794898 82.6224286"></polygon>
                                <path d="M47.4882857,60.4868673 C47.1278163,60.1373265 46.6426224,59.9503265 46.143898,59.9638571 L38.7419592,60.1860714 C37.7417347,60.2186837 36.9475918,61.0369388 36.9475918,62.0343878 L36.9475918,70.3062755 C36.9475918,71.3307857 37.776949,72.1575408 38.7988571,72.1575408 L46.1980204,72.1575408 C47.2199286,72.1575408 48.0492857,71.3307857 48.0492857,70.3062755 L48.0492857,61.8123469 C48.0492857,61.3136224 47.8459796,60.8365816 47.4882857,60.4868673 Z" id="Shape" fill="#ED5564"></path>
                                <path d="M30.1446429,69.4229694 L42.6392959,62.9832653 L55.448449,69.5908878 L57.8987041,65.9672857 L61.2487449,61.4572551 C60.3921531,60.7822857 59.9883163,60.2566735 59.8013163,59.888051 C59.7824082,59.8554388 59.7687041,59.8176224 59.7525714,59.7824082 L59.6930714,51.3611633 L42.4984388,51.1660102 L25.3039796,51.3611633 L25.2443061,59.7824082 C25.228,59.8176224 25.2144694,59.8556122 25.1955612,59.888051 C25.0057857,60.262051 24.5884184,60.8039694 23.7021633,61.4924694 L30.1446429,69.4229694 Z" id="Shape" fill="#E6E9ED"></path>
                                <g id="Group" transform="translate(20.295918, 53.428571)" fill="#656D78">
                                    <polygon id="Shape" points="18.5029388 35.3842857 4.9917551 0.0196020408 0.140163265 12.2106837 5.78589796 16.5470714 4.77769388 20.7103367 11.3747347 35.3842857"></polygon>
                                    <polygon id="Shape" points="26.1758367 35.3842857 39.4134592 0.0196020408 44.5384388 12.2106837 38.893051 16.5470714 39.9010816 20.7103367 33.3040408 35.3842857"></polygon>
                                </g>
                                <path d="M66.3574184,35.0638878 C66.3574184,50.5671939 51.580602,64.8371327 42.4982653,64.8371327 C33.4185306,64.8371327 18.6389388,50.5671939 18.6389388,35.0638878 C18.6389388,19.5605816 29.3204898,9.33178571 42.4982653,9.33178571 C55.6760408,9.33178571 66.3574184,19.5605816 66.3574184,35.0638878 Z" id="Shape" fill="#EAC6BB"></path>
                                <path d="M72.3202551,24.1032245 C70.5938878,23.2251224 68.1736429,22.4498878 65.1297755,21.794 C59.0642449,20.4902041 51.0279286,19.7692653 42.4984388,19.7692653 C33.968949,19.7692653 25.9328061,20.4902041 19.8669286,21.7938265 C16.8232347,22.4497143 14.4028163,23.224949 12.676449,24.103051 C10.3646224,25.2793469 9.19370408,26.7212245 9.19370408,28.3854898 C9.19370408,30.0523571 10.3646224,31.4942347 12.676449,32.6705306 C14.4028163,33.5486327 16.8232347,34.3238673 19.8669286,34.9797551 C25.9328061,36.283551 33.968949,37.0044898 42.4984388,37.0044898 C51.0279286,37.0044898 59.0642449,36.283551 65.1297755,34.9799286 C68.1736429,34.3240408 70.5938878,33.5488061 72.3202551,32.6707041 C74.6322551,31.4944082 75.8031735,30.0525306 75.8031735,28.3856633 C75.8031735,26.721398 74.6322551,25.2795204 72.3202551,24.1032245 Z" id="Shape" fill="#7F4545"></path>
                                <path d="M60.9776122,4.97076531 C58.8527857,1.71838776 55.7601735,0 52.0387347,0 C49.7404388,0 47.2521939,0.636979592 44.639398,1.89463265 C43.837102,2.28216327 43.0917041,2.69953061 42.4982653,3.06277551 C40.6986939,1.96506122 36.9231327,0 32.9579694,0 C29.2367041,0 26.1442653,1.71838776 24.0192653,4.97076531 C21.5475,8.74892857 20.2952245,14.741602 20.2952245,22.7805204 C20.2952245,24.3606531 21.7860204,25.3012041 22.9080204,25.8675816 C24.0896939,26.4665714 25.7213469,27.0492551 27.6321122,27.5589082 C30.1798571,28.2337041 35.5001633,29.3721837 42.4982653,29.3721837 C49.4965408,29.3721837 54.8168469,28.2338776 57.3645918,27.5589082 C59.2755306,27.0492551 60.9070102,26.4667449 62.0885102,25.8675816 C63.2105102,25.3010306 64.7013061,24.3604796 64.7013061,22.7805204 C64.7013061,14.741602 63.4492041,8.74892857 60.9776122,4.97076531 Z" id="Shape" fill="#965353"></path>
                            </g>
                        </g>
                    </g>
                </g>
            </g>
        </g>
    </g>
</svg>