<svg width="85px" height="109px" viewBox="0 0 85 109" version="1.1" xmlns="http://www.w3.org/2000/svg" xmlns:xlink="http://www.w3.org/1999/xlink">
    <!-- Generator: Sketch 46.2 (44496) - http://www.bohemiancoding.com/sketch -->
    <desc>Created with Sketch.</desc>
    <defs></defs>
    <g id="paginadorCarpetaInvestigación-Correcciones" stroke="none" stroke-width="1" fill="none" fill-rule="evenodd">
        <g id="Detalle-de-caso-NIC" transform="translate(-1124.000000, -1348.000000)" fill-rule="nonzero">
            <g id="Detalle-pre-denuncia" transform="translate(-46.000000, 649.000000)">
                <g id="Solicitudes-Preliminares" transform="translate(225.000000, 394.000000)">
                    <g id="Row-Copy" transform="translate(0.000000, 286.000000)">
                        <g id="Card-Menu-Copy-2" transform="translate(710.000000, 0.000000)">
                            <g id="051-evidence" transform="translate(235.000000, 19.000000)">
                                <path d="M82.7102861,2.20936567 L2.28971393,2.20936567 L2.28971393,99.4212438 C2.28971393,103.081953 5.25710199,106.049341 8.91781095,106.049341 L76.0824005,106.049341 C79.7431095,106.049341 82.7104975,103.081953 82.7104975,99.4212438 L82.7104975,2.20936567 L82.7102861,2.20936567 Z" id="Shape" fill="#C2EDFF"></path>
                                <rect id="Rectangle-path" fill="#FFFFFF" x="2.28971393" y="2.20936567" width="80.4207836" height="9.50033582"></rect>
                                <path d="M67.473296,96.5494279 L67.473296,18.7795025 L51.2856592,18.7795025 C47.6249502,18.7795025 44.6575622,21.7468905 44.6575622,25.4075995 L44.6575622,89.9213308 C44.6575622,93.5820398 47.6249502,96.5494279 51.2856592,96.5494279 L67.473296,96.5494279 Z" id="Shape" fill="#DEDDE1"></path>
                                <g id="Group" transform="translate(67.450249, 23.047264)" fill="#FFFFFF">
                                    <rect id="Rectangle-path" x="0.0222014925" y="0.0338308458" width="5.68083333" height="6.39973881"></rect>
                                    <rect id="Rectangle-path" x="0.0222014925" y="62.295908" width="5.68083333" height="6.39973881"></rect>
                                </g>
                                <path d="M44.6575622,25.4957711 L15.3689303,22.3207463 C12.6732463,22.3207463 11.7896269,24.5060075 11.7896269,27.2016915 L11.7896269,38.9534701 C11.7896269,41.6491542 12.6734577,43.8344154 15.3689303,43.8344154 L44.6575622,47.0092289 L44.6575622,25.4957711 L44.6575622,25.4957711 Z" id="Shape" fill="#2F456A"></path>
                                <rect id="Rectangle-path" fill="#FFFFFF" x="58.8912562" y="41.8121766" width="8.58246269" height="27.619291"></rect>
                                <path d="M74.9769776,13.9190672 L74.9465299,13.9190672 C73.7262935,13.9190672 72.7371642,12.9299378 72.7371642,11.7097015 C72.7371642,10.4894652 73.7262935,9.50033582 74.9465299,9.50033582 L74.9769776,9.50033582 C76.1972139,9.50033582 77.1863433,10.4894652 77.1863433,11.7097015 C77.1863433,12.9299378 76.1972139,13.9190672 74.9769776,13.9190672 Z" id="Shape" fill="#000000"></path>
                                <path d="M82.7102861,0 L2.28971393,0 C1.06947761,0 0.0803482587,0.989129353 0.0803482587,2.20936567 L0.0803482587,99.4212438 C0.0803482587,104.294154 4.04468905,108.258706 8.91781095,108.258706 L76.0824005,108.258706 C80.9553109,108.258706 84.9198632,104.294154 84.9198632,99.4212438 L84.9198632,2.20936567 C84.9196517,0.989129353 83.9305224,0 82.7102861,0 Z M80.5009204,99.4212438 C80.5009204,101.857699 78.5186443,103.839975 76.0821891,103.839975 L8.91781095,103.839975 C6.48135572,103.839975 4.4990796,101.857699 4.4990796,99.4212438 L4.4990796,13.9190672 L68.3482463,13.9190672 C69.5684826,13.9190672 70.5576119,12.9299378 70.5576119,11.7097015 C70.5576119,10.4894652 69.5684826,9.50033582 68.3482463,9.50033582 L4.4990796,9.50033582 L4.4990796,4.41873134 L80.5011318,4.41873134 L80.5011318,99.4212438 L80.5009204,99.4212438 Z" id="Shape" fill="#000000"></path>
                                <path d="M52.0574254,87.3783085 C50.8371891,87.3783085 49.8480597,86.3891791 49.8480597,85.1689428 L49.8480597,85.1463184 C49.8480597,83.9260821 50.8371891,82.9369527 52.0574254,82.9369527 C53.2776617,82.9369527 54.266791,83.9260821 54.266791,85.1463184 L54.266791,85.1689428 C54.266791,86.3891791 53.2776617,87.3783085 52.0574254,87.3783085 Z" id="Shape" fill="#000000"></path>
                                <path d="M37.4657587,40.9619652 C36.2455224,40.9619652 35.256393,39.9728358 35.256393,38.7525995 L35.256393,38.7299751 C35.256393,37.5097388 36.2455224,36.5206095 37.4657587,36.5206095 C38.685995,36.5206095 39.6751244,37.5097388 39.6751244,38.7299751 L39.6751244,38.7525995 C39.6751244,39.9728358 38.685995,40.9619652 37.4657587,40.9619652 Z" id="Shape" fill="#000000"></path>
                                <path d="M31.4269527,40.4737438 C30.2067164,40.4737438 29.2175871,39.4846144 29.2175871,38.2643781 L29.2175871,38.2417537 C29.2175871,37.0215174 30.2067164,36.0323881 31.4269527,36.0323881 C32.6471891,36.0323881 33.6363184,37.0215174 33.6363184,38.2417537 L33.6363184,38.2643781 C33.6363184,39.4846144 32.6471891,40.4737438 31.4269527,40.4737438 Z" id="Shape" fill="#000000"></path>
                                <path d="M25.3881468,40.1485448 C24.1679104,40.1485448 23.1787811,39.1594154 23.1787811,37.9391791 L23.1787811,37.9165547 C23.1787811,36.6963184 24.1679104,35.7071891 25.3881468,35.7071891 C26.6083831,35.7071891 27.5975124,36.6963184 27.5975124,37.9165547 L27.5975124,37.9391791 C27.5975124,39.1594154 26.6083831,40.1485448 25.3881468,40.1485448 Z" id="Shape" fill="#000000"></path>
                                <path d="M19.3491294,39.8231343 C18.128893,39.8231343 17.1397637,38.834005 17.1397637,37.6137687 L17.1397637,37.5911443 C17.1397637,36.370908 18.128893,35.3817786 19.3491294,35.3817786 C20.5693657,35.3817786 21.558495,36.370908 21.558495,37.5911443 L21.558495,37.6137687 C21.558495,38.834005 20.5693657,39.8231343 19.3491294,39.8231343 Z" id="Shape" fill="#000000"></path>
                                <path d="M28.4929726,74.0400746 L22.6264925,68.1735945 C21.4855473,67.0326493 19.6356343,67.0326493 18.4944776,68.1735945 L8.25366915,78.414403 C7.11272388,79.5553483 7.11272388,81.4052612 8.25366915,82.5464179 L14.1201493,88.412898 C15.2610945,89.5538433 17.1110075,89.5538433 18.2521642,88.412898 L28.4929726,78.1720896 C29.6337065,77.0311443 29.6337065,75.1812313 28.4929726,74.0400746 Z" id="Shape" fill="#FF911F"></path>
                                <path d="M69.6826617,41.8130224 L69.6826617,31.6910448 L73.1539179,31.6910448 C74.3741542,31.6910448 75.3632836,30.7019154 75.3632836,29.4816791 L75.3632836,23.0819403 C75.3632836,21.861704 74.3741542,20.8725746 73.1539179,20.8725746 L69.6826617,20.8725746 L69.6826617,18.7795025 C69.6826617,17.5592662 68.6935323,16.5701368 67.473296,16.5701368 L51.2856592,16.5701368 C47.2225746,16.5701368 43.7931841,19.3271393 42.7647264,23.0679851 L15.6070149,20.1240672 C15.5279353,20.115398 15.4484328,20.1111692 15.3689303,20.1111692 C14.0110448,20.1111692 9.58026119,20.6224378 9.58026119,27.2014801 L9.58026119,38.9532587 C9.58026119,45.3293159 13.7414552,46.0063557 15.2344527,46.0420896 L28.489801,47.4790547 L28.489801,59.9104104 C28.489801,60.6422139 28.6016542,61.3482214 28.8084453,62.0127861 C26.8344154,62.92199 25.2179353,64.5904851 24.2622139,66.6846144 L24.1884204,66.6108209 C23.2193781,65.6415672 21.9308458,65.1078856 20.5602736,65.1078856 C19.1897015,65.1078856 17.9011692,65.6415672 16.9321269,66.6106095 L6.69131841,76.8514179 C5.72227612,77.8206716 5.18859453,79.109204 5.18859453,80.4795647 C5.18859453,81.8503483 5.72227612,83.1386692 6.69131841,84.1077114 L12.5577985,89.9741915 C13.5581343,90.9745274 14.8718284,91.474801 16.1859453,91.4745896 C17.4996393,91.4745896 18.8139677,90.9743159 19.814092,89.9741915 L30.0549005,79.7333831 C31.0239428,78.7641294 31.5576244,77.475597 31.5576244,76.1052363 C31.5576244,74.7348756 31.0239428,73.4461318 30.0549005,72.4770896 L27.7933085,70.215709 C28.1013806,67.9133085 29.628209,66.0972264 31.5521269,65.7426368 C32.6634701,66.5122886 34.0042289,66.9730224 35.4494403,66.9992413 L42.4479851,67.757898 L42.4479851,89.9204851 C42.4479851,94.7933955 46.4125373,98.7579478 51.2854478,98.7579478 L67.4730846,98.7579478 C68.6933209,98.7579478 69.6824502,97.7688184 69.6824502,96.5485821 L69.6824502,93.9503731 L73.1537065,93.9503731 C74.3739428,93.9503731 75.3630721,92.9612438 75.3630721,91.7410075 L75.3630721,85.3416915 C75.3630721,84.1214552 74.3739428,83.1323259 73.1537065,83.1323259 L69.6824502,83.1323259 L69.6824502,69.4314677 L69.6824502,41.8130224 L69.6826617,41.8130224 Z M26.9306219,76.6097388 L16.6898134,86.8505473 C16.4119776,87.1281716 15.9601244,87.1281716 15.6822886,86.8505473 L9.81580846,80.9840672 C9.6341791,80.8024378 9.60711443,80.5905721 9.60711443,80.4804104 C9.60711443,80.3702488 9.63439055,80.1583831 9.81580846,79.9769652 L20.0566169,69.7361567 C20.2382463,69.5545274 20.4501119,69.5274627 20.5602736,69.5274627 C20.6704353,69.5274627 20.882301,69.5547388 21.0637189,69.7361567 L26.930199,75.6026368 L26.930199,75.6026368 C27.1118284,75.7840547 27.1386816,75.9961318 27.1386816,76.1060821 C27.1393159,76.2162438 27.1122512,76.4281095 26.9306219,76.6097388 Z M42.4486194,63.314005 L35.8186194,62.5953109 C35.7395398,62.5866418 35.6600373,62.5824129 35.5805348,62.5824129 C34.1076244,62.5824129 32.9089552,61.3837438 32.9089552,59.9106219 L32.9089552,47.9581841 L38.1863557,48.5301368 C36.058607,50.3565796 34.7068532,53.0626244 34.7068532,56.0801244 C34.7068532,57.3003607 35.6959826,58.28949 36.9162189,58.28949 C38.1364552,58.28949 39.1255846,57.3003607 39.1255846,56.0801244 C39.1255846,53.8147264 40.4948881,51.8639552 42.4486194,51.0095149 L42.4486194,63.314005 L42.4486194,63.314005 Z M42.4486194,44.5478234 L15.6072264,41.6383706 C15.5281468,41.6297015 15.4486443,41.6254726 15.3691418,41.6254726 C14.8904353,41.6254726 13.999204,41.6254726 13.999204,38.9536816 L13.999204,27.201903 C13.999204,24.7237935 14.7658955,24.5442786 15.2591915,24.5311692 L17.1397637,24.735 L17.1397637,32.7321891 C17.1397637,33.9524254 18.128893,34.9415547 19.3491294,34.9415547 C20.5693657,34.9415547 21.558495,33.9524254 21.558495,32.7321891 L21.558495,25.2139179 L23.1785697,25.3896269 L23.1785697,33.0575995 C23.1785697,34.2778358 24.167699,35.2669652 25.3879353,35.2669652 C26.6081716,35.2669652 27.597301,34.2778358 27.597301,33.0575995 L27.597301,25.8685448 L29.2173756,26.0442537 L29.2173756,33.38301 C29.2173756,34.6032463 30.206505,35.5923756 31.4267413,35.5923756 C32.6469776,35.5923756 33.636107,34.6032463 33.636107,33.38301 L33.636107,26.5233831 L35.2561816,26.699092 L35.2561816,33.8714428 C35.2561816,35.0916791 36.2453109,36.0808085 37.4655473,36.0808085 C38.6857836,36.0808085 39.6749129,35.0916791 39.6749129,33.8714428 L39.6749129,27.1782214 L42.448408,27.478893 L42.448408,44.5480348 L42.4486194,44.5480348 L42.4486194,44.5478234 Z M65.2639303,67.2223134 L61.100199,67.2223134 L61.100199,44.0223881 L65.2639303,44.0223881 L65.2639303,67.2223134 Z M70.9447637,25.2917289 L70.9447637,27.2727363 L69.6828731,27.2727363 L69.6828731,25.2917289 C69.6828731,25.2917289 70.9447637,25.2917289 70.9447637,25.2917289 Z M65.2639303,94.3398507 L51.2856592,94.3398507 C48.849204,94.3398507 46.8669279,92.3575746 46.8669279,89.9211194 L46.8669279,25.4955597 L46.8669279,25.4075995 C46.8669279,23.4750124 48.1161318,21.8323134 49.8478483,21.2339303 L49.8478483,80.2875746 C49.8478483,81.5078109 50.8369776,82.4969403 52.0572139,82.4969403 C53.2774502,82.4969403 54.2665796,81.5078109 54.2665796,80.2875746 L54.2665796,20.9888682 L65.2639303,20.9888682 L65.2639303,23.0821517 L65.2639303,29.4818905 L65.2639303,39.6038682 L58.8908333,39.6038682 C57.670597,39.6038682 56.6814677,40.5929975 56.6814677,41.8132338 L56.6814677,69.4314677 C56.6814677,70.651704 57.670597,71.6408333 58.8908333,71.6408333 L65.2639303,71.6408333 L65.2639303,85.3421144 L65.2639303,91.7414303 L65.2639303,94.3398507 L65.2639303,94.3398507 Z M70.9447637,87.5516915 L70.9447637,89.5324876 L69.6828731,89.5324876 L69.6828731,87.5516915 L70.9447637,87.5516915 Z" id="Shape" fill="#000000"></path>
                                <path d="M61.0058955,36.8745647 C62.2261318,36.8745647 63.2152612,35.8854353 63.2152612,34.665199 L63.2152612,26.4988557 C63.2152612,25.2786194 62.2261318,24.28949 61.0058955,24.28949 C59.7856592,24.28949 58.7965299,25.2786194 58.7965299,26.4988557 L58.7965299,34.665199 C58.7965299,35.8852239 59.7856592,36.8745647 61.0058955,36.8745647 Z" id="Shape" fill="#000000"></path>
                            </g>
                        </g>
                    </g>
                </g>
            </g>
        </g>
    </g>
</svg>