<svg width="93px" height="68px" viewBox="0 0 93 68" version="1.1" xmlns="http://www.w3.org/2000/svg" xmlns:xlink="http://www.w3.org/1999/xlink">
    <!-- Generator: Sketch 46.2 (44496) - http://www.bohemiancoding.com/sketch -->
    <desc>Created with Sketch.</desc>
    <defs></defs>
    <g id="paginadorCarpetaInvestigación-Correcciones" stroke="none" stroke-width="1" fill="none" fill-rule="evenodd">
        <g id="Detalle-de-caso-NIC" transform="translate(-774.000000, -1182.000000)" fill-rule="nonzero">
            <g id="Detalle-pre-denuncia" transform="translate(-46.000000, 649.000000)">
                <g id="Solicitudes-Preliminares" transform="translate(225.000000, 394.000000)">
                    <g id="Row" transform="translate(0.000000, 107.000000)">
                        <g id="Card-Menu-Copy" transform="translate(355.000000, 0.000000)">
                            <g id="051-police-cap" transform="translate(240.000000, 32.000000)">
                                <path d="M77.7195712,54.4023778 L46.9028946,43.1176812 C46.4777592,42.9626535 46.0129493,42.9598982 45.5878139,43.1147423 L14.2877641,54.3994389 C13.3807115,54.7265768 12.8489282,55.6763972 13.0380189,56.6293402 C13.3408551,58.1561062 14.9700555,60.6958793 18.5671453,62.8311843 C24.3437821,66.2608974 33.5739163,68 46.0002098,68 C58.4265033,68 67.6564555,66.2608974 73.4318183,62.8311843 C77.0287261,60.6958793 78.6581086,58.1561062 78.9624007,56.6293402 C79.1498534,55.6793361 78.620982,54.7324546 77.7195712,54.4023778 Z" id="Shape" fill="#434A54"></path>
                                <path d="M73.4316093,61.2513584 C67.6564054,64.4980511 58.4262343,66.1445235 45.9998911,66.1445235 C33.5735479,66.1445235 24.3433769,64.4980511 18.566717,61.2513584 C15.4446163,59.4963847 13.8052177,57.4534653 13.2295718,56 C13.024829,56.3667135 12.9465717,56.8014142 13.0375685,57.2361149 C13.3404059,58.6814079 14.9696129,61.0856505 18.566717,63.1070088 C24.3433769,66.3537015 33.5735479,68 45.9998911,68 C58.4262343,68 67.6562234,66.3537015 73.4316093,63.1070088 C77.0285314,61.0856505 78.6579204,58.6814079 78.9622138,57.2361149 C79.0532106,56.8014142 78.9764093,56.3667135 78.7689365,56 C78.1943826,57.4534653 76.553892,59.4963847 73.4316093,61.2513584 Z" id="Shape" fill="#656D78"></path>
                                <path d="M92.7959306,36.4427945 L81.1708367,12.8715764 C80.9466834,12.4168955 80.5548691,12.0673676 80.0809501,11.8975758 L47.144395,0.112150941 C46.7273317,-0.037383647 46.2732123,-0.037383647 45.8559674,0.112150941 L12.9179591,11.8975758 C12.4425869,12.0688408 12.0509543,12.419842 11.8266193,12.8772852 L0.201707077,36.6413145 C-0.148873117,37.3589701 -0.0353432611,38.2193464 0.486894074,38.8178531 L14.0503513,54.3381437 C14.4178248,54.7582033 14.9458748,55 15.5006271,55 L77.4981005,55 C78.0572123,55 78.5879871,54.755441 78.9569137,54.3294884 L92.5205526,38.6163865 C93.0371588,38.0151175 93.147964,37.1563986 92.7959306,36.4427945 Z" id="Shape" fill="#4A89DC"></path>
                                <path d="M70.3729071,35.6954151 C65.9398811,33.5524731 58.1144746,31 46.00091,31 C24.4680296,31 13,38.8394935 13,44.5007874 L13,56.0719868 C13,56.7133145 13.3214026,57.3121521 13.8586508,57.6708761 C14.3946251,58.0296001 15.0741932,58.1002962 15.6727736,57.8572896 C15.7652269,57.8205855 25.102099,54.1425797 46.000728,54.1425797 C66.7699587,54.1425797 76.238959,57.8232976 76.3328682,57.8601826 C76.5660034,57.9534797 76.8133341,57.9986818 77.057753,57.9986818 C77.4388498,57.9986818 77.8170347,57.8885695 78.1411672,57.6710569 C78.6785974,57.3125137 79,56.7134953 79,56.0721676 L79,44.5009682 C79.000182,41.6418439 75.693157,38.268862 70.3729071,35.6954151 Z" id="Shape" fill="#5D9CEC"></path>
                                <path d="M78.1411672,54.6594378 C77.8170347,54.8850235 77.4388498,54.9992227 77.057753,54.9992227 C76.8131521,54.9992227 76.5660034,54.9523429 76.3328682,54.8527702 C76.238959,54.8147038 66.7699587,51 46.000728,51 C25.101917,51 15.7652269,54.8147038 15.6727736,54.8527702 C15.0741932,55.1017957 14.3946251,55.031476 13.8586508,54.6594378 C13.3212206,54.2873997 13,53.6661485 13,52.998205 L13,57.000428 C13,57.6655587 13.3214026,58.2866224 13.8586508,58.6586605 C14.3946251,59.0306987 15.0741932,59.1040187 15.6727736,58.8519929 C15.7652269,58.8139265 25.102099,54.9994102 46.000728,54.9994102 C66.7699587,54.9994102 76.238959,58.8167393 76.3328682,58.8549932 C76.5660034,58.9517531 76.8133341,58.9986329 77.057753,58.9986329 C77.4388498,58.9986329 77.8170347,58.8844337 78.1411672,58.6588481 C78.6785974,58.2869974 79,57.6657462 79,57.0006155 L79,52.9983925 C78.999818,53.6661485 78.6785974,54.2872122 78.1411672,54.6594378 Z" id="Shape" fill="#FFCE54"></path>
                                <g id="Group" transform="translate(12.000000, 11.000000)" fill="#5D9CEC">
                                    <path d="M12.168634,20.1133333 C12.5420876,20.6559231 13.1453866,20.9475897 13.7598711,20.9475897 C14.1333247,20.9475897 14.5111082,20.8395385 14.8437887,20.6139231 C15.7204124,20.0180256 15.9459278,18.8262308 15.3469588,17.9541026 L3.03994845,0.036974359 L1.64463918,0.52625641 C1.1725,0.693179487 0.783530928,1.03528205 0.560721649,1.48112821 L0.0604381443,2.48661538 L12.168634,20.1133333 Z" id="Shape"></path>
                                    <path d="M69.4331443,1.47538462 C69.2105155,1.03223077 68.821366,0.691564103 68.3506701,0.526076923 L66.9609536,0.0382307692 L54.5806959,17.948359 C53.9775773,18.8204872 54.2003866,20.0124615 55.0739433,20.6110513 C55.4066237,20.8382821 55.7871134,20.9475897 56.1620103,20.9475897 C56.7763144,20.9475897 57.3767268,20.6587949 57.7518041,20.1188974 L69.9406443,2.4864359 L69.4331443,1.47538462 Z" id="Shape"></path>
                                </g>
                                <path d="M46.7265543,29.9174835 C47.7428094,29.0925004 48.0159524,28.8723958 50.1082737,28.3413095 C51.6418855,27.9509011 52.8508848,27.2580534 53.7051,26.2811236 C54.5534583,25.3071019 55,24.0646289 55,22.6872942 C55,21.703276 54.5507961,20.8799287 54.0767448,20.009507 C53.7828366,19.4742403 53.4527222,18.872088 53.1921804,18.1621554 C52.5072819,16.3049892 53.2642376,15.5154481 54.0685807,14.6806503 L54.7950097,13.923825 C54.8587253,13.8556671 54.8947539,13.7704243 54.8947539,13.6795471 C54.8947539,13.5759471 54.8503837,13.4807078 54.7699849,13.41255 L54.6922483,13.3458461 L50.8515634,10.1028027 C50.7711646,10.0275564 50.6740826,9.99484058 50.5798403,10.0006567 C50.4939396,10.0062911 50.410701,10.0431872 50.3469854,10.1086188 C50.1945294,10.2791044 50.0502375,10.4437739 49.9891841,10.5146581 L49.8670773,10.6609704 C49.5287989,11.0657374 49.1473926,11.5228497 48.6108681,11.5228497 C48.0202119,11.5228497 47.5335595,10.9677718 47.1397296,10.5219283 C47.0094587,10.3728897 46.8513233,10.2109465 46.7267317,10.095896 L46.7100485,10.0817192 C46.6365715,10.0277381 46.5700162,10.0035648 46.4992013,10.0008385 C46.4228846,10.0037465 46.3479877,10.0350083 46.2883541,10.0846272 C46.1497416,10.2109465 45.993026,10.3728897 45.8627551,10.5204743 C45.4689252,10.9677718 44.980853,11.5228497 44.3901968,11.5228497 C43.8536723,11.5228497 43.4710236,11.0642834 43.1327452,10.6582441 L43.0120583,10.5133858 C42.9510049,10.4437739 42.8068904,10.2791044 42.6654382,10.1200694 C42.5101425,9.96103427 42.2923735,9.96812269 42.1580206,10.094442 L38.2827269,13.3672931 L38.2300151,13.4127317 C38.1522785,13.4808896 38.106666,13.5759471 38.106666,13.6797289 C38.106666,13.7706061 38.1426946,13.8573029 38.2051678,13.9240068 L38.9331941,14.680832 C39.7373597,15.5158116 40.4943154,16.3051709 39.8094169,18.1623372 C39.5472778,18.8722698 39.2187608,19.4744221 38.9262724,20.0067806 C38.4492039,20.8801104 38,21.7034578 38,22.687476 C38,24.0648107 38.4477841,25.3072836 39.2977397,26.2813054 C40.1489377,27.2582352 41.3595344,27.9510829 42.8929686,28.3414913 C44.98529,28.8725776 45.2584329,29.0926821 46.2720259,29.9147572 C46.3371614,29.9701923 46.5048807,30 46.5048807,30 C46.5865219,29.9983642 46.6642585,29.9700105 46.7265543,29.9174835 Z" id="Shape" fill="#FFCE54"></path>
                            </g>
                        </g>
                    </g>
                </g>
            </g>
        </g>
    </g>
</svg>