<?xml version="1.0" encoding="UTF-8"?>
<svg width="82px" height="88px" viewBox="0 0 82 88" version="1.1" xmlns="http://www.w3.org/2000/svg" xmlns:xlink="http://www.w3.org/1999/xlink">
    <!-- Generator: Sketch 46.2 (44496) - http://www.bohemiancoding.com/sketch -->
    <title>051-agreement</title>
    <desc>Created with Sketch.</desc>
    <defs>
        <rect id="path-1" x="3" y="5" width="38" height="30"></rect>
        <rect id="path-2" x="43" y="52" width="36" height="31"></rect>
        <rect id="path-3" x="3" y="37" width="38" height="16"></rect>
        <rect id="path-4" x="3" y="55" width="17" height="16"></rect>
        <rect id="path-5" x="22" y="55" width="19" height="16"></rect>
        <rect id="path-6" x="46" y="54" width="15" height="16"></rect>
        <rect id="path-7" x="5" y="40" width="9" height="10"></rect>
        <rect id="path-8" x="27" y="58" width="9" height="10"></rect>
        <rect id="path-9" x="3" y="73" width="38" height="10"></rect>
        <rect id="path-10" x="43" y="5" width="36" height="45"></rect>
    </defs>
    <g id="paginadorCarpetaInvestigación-Correcciones" stroke="none" stroke-width="1" fill="none" fill-rule="evenodd">
        <g id="Detalle-de-caso-NIC" transform="translate(-447.000000, -444.000000)">
            <g id="Detalle-noticia-de-hechos" transform="translate(134.000000, 160.000000)">
                <g id="botones" transform="translate(67.000000, 250.000000)">
                    <g id="Card-Menu-Copy-4" transform="translate(0.000000, 1.000000)">
                        <g id="051-agreement" transform="translate(246.000000, 33.000000)">
                            <rect id="Rectangle-path" fill="#FFFFFF" fill-rule="nonzero" x="2" y="2" width="78" height="84"></rect>
                            <path d="M79.6298284,88 L2.36994482,88 C1.06102037,88 0,87.1959688 0,86.2040781 L0,1.79592187 C0,0.80403125 1.06102037,0 2.36994482,0 L79.6300552,0 C80.9389796,0 82,0.80403125 82,1.79592187 L82,86.2040781 C81.9997732,87.1959688 80.9387528,88 79.6298284,88 Z M2.48484848,84.4081562 L79.7394372,84.4081562 L79.7394372,3.59184375 L2.48484848,3.59184375 L2.48484848,84.4081562 Z" id="Shape" fill="#000000" fill-rule="nonzero"></path>
                            <g id="Rectangle-6">
                                <use fill="#F1F2F2" fill-rule="evenodd" xlink:href="#path-1"></use>
                                <rect stroke="#979797" stroke-width="1" x="3.5" y="5.5" width="37" height="29"></rect>
                            </g>
                            <g id="Rectangle-6">
                                <use fill="#F1F2F2" fill-rule="evenodd" xlink:href="#path-2"></use>
                                <rect stroke="#979797" stroke-width="1" x="43.5" y="52.5" width="35" height="30"></rect>
                            </g>
                            <g id="Rectangle-6">
                                <use fill="#F1F2F2" fill-rule="evenodd" xlink:href="#path-3"></use>
                                <rect stroke="#979797" stroke-width="1" x="3.5" y="37.5" width="37" height="15"></rect>
                            </g>
                            <path d="M75.462804,64 L63.537196,64 C63.2405018,64 63,63.7761508 63,63.5 C63,63.2238492 63.2405018,63 63.537196,63 L75.462804,63 C75.7594982,63 76,63.2238492 76,63.5 C76,63.7761508 75.7594982,64 75.462804,64 Z" id="Shape" fill="#000000" fill-rule="nonzero"></path>
                            <path d="M75.462804,58 L63.537196,58 C63.2405018,58 63,57.7761508 63,57.5 C63,57.2238492 63.2405018,57 63.537196,57 L75.462804,57 C75.7594982,57 76,57.2238492 76,57.5 C76,57.7761508 75.7594982,58 75.462804,58 Z" id="Shape" fill="#000000" fill-rule="nonzero"></path>
                            <path d="M75.462804,61 L63.537196,61 C63.2405018,61 63,60.7761508 63,60.5 C63,60.2238492 63.2405018,60 63.537196,60 L75.462804,60 C75.7594982,60 76,60.2238492 76,60.5 C76,60.7761508 75.7594982,61 75.462804,61 Z" id="Shape" fill="#000000" fill-rule="nonzero"></path>
                            <g id="Rectangle-6">
                                <use fill="#F1F2F2" fill-rule="evenodd" xlink:href="#path-4"></use>
                                <rect stroke="#979797" stroke-width="1" x="3.5" y="55.5" width="16" height="15"></rect>
                            </g>
                            <g id="Rectangle-6">
                                <use fill="#F1F2F2" fill-rule="evenodd" xlink:href="#path-5"></use>
                                <rect stroke="#979797" stroke-width="1" x="22.5" y="55.5" width="18" height="15"></rect>
                            </g>
                            <g id="Rectangle-6">
                                <use fill="#19D5D5" fill-rule="evenodd" xlink:href="#path-6"></use>
                                <rect stroke="#979797" stroke-width="1" x="46.5" y="54.5" width="14" height="15"></rect>
                            </g>
                            <g id="Rectangle-6">
                                <use fill="#19D5D5" fill-rule="evenodd" xlink:href="#path-7"></use>
                                <rect stroke="#979797" stroke-width="1" x="5.5" y="40.5" width="8" height="9"></rect>
                            </g>
                            <g id="Rectangle-6">
                                <use fill="#19D5D5" fill-rule="evenodd" xlink:href="#path-8"></use>
                                <rect stroke="#979797" stroke-width="1" x="27.5" y="58.5" width="8" height="9"></rect>
                            </g>
                            <g id="Rectangle-6">
                                <use fill="#F1F2F2" fill-rule="evenodd" xlink:href="#path-9"></use>
                                <rect stroke="#979797" stroke-width="1" x="3.5" y="73.5" width="37" height="9"></rect>
                            </g>
                            <path d="M34.8842852,32 L10.1157148,32 C9.49950368,32 9,31.7761508 9,31.5 C9,31.2238492 9.49950368,31 10.1157148,31 L34.8842852,31 C35.5004963,31 36,31.2238492 36,31.5 C36,31.7761508 35.5004963,32 34.8842852,32 Z" id="Shape" fill="#000000" fill-rule="nonzero"></path>
                            <path d="M34.8842852,11 L10.1157148,11 C9.49950368,11 9,10.7761508 9,10.5 C9,10.2238492 9.49950368,10 10.1157148,10 L34.8842852,10 C35.5004963,10 36,10.2238492 36,10.5 C36,10.7761508 35.5004963,11 34.8842852,11 Z" id="Shape" fill="#000000" fill-rule="nonzero"></path>
                            <path d="M34.8842852,29 L10.1157148,29 C9.49950368,29 9,28.7761508 9,28.5 C9,28.2238492 9.49950368,28 10.1157148,28 L34.8842852,28 C35.5004963,28 36,28.2238492 36,28.5 C36,28.7761508 35.5004963,29 34.8842852,29 Z" id="Shape" fill="#000000" fill-rule="nonzero"></path>
                            <path d="M34.8842852,26 L10.1157148,26 C9.49950368,26 9,25.7761508 9,25.5 C9,25.2238492 9.49950368,25 10.1157148,25 L34.8842852,25 C35.5004963,25 36,25.2238492 36,25.5 C36,25.7761508 35.5004963,26 34.8842852,26 Z" id="Shape" fill="#000000" fill-rule="nonzero"></path>
                            <path d="M34.8842852,23 L10.1157148,23 C9.49950368,23 9,22.7761508 9,22.5 C9,22.2238492 9.49950368,22 10.1157148,22 L34.8842852,22 C35.5004963,22 36,22.2238492 36,22.5 C36,22.7761508 35.5004963,23 34.8842852,23 Z" id="Shape" fill="#000000" fill-rule="nonzero"></path>
                            <path d="M34.8842852,20 L10.1157148,20 C9.49950368,20 9,19.7761508 9,19.5 C9,19.2238492 9.49950368,19 10.1157148,19 L34.8842852,19 C35.5004963,19 36,19.2238492 36,19.5 C36,19.7761508 35.5004963,20 34.8842852,20 Z" id="Shape" fill="#000000" fill-rule="nonzero"></path>
                            <path d="M34.8842852,17 L10.1157148,17 C9.49950368,17 9,16.7761508 9,16.5 C9,16.2238492 9.49950368,16 10.1157148,16 L34.8842852,16 C35.5004963,16 36,16.2238492 36,16.5 C36,16.7761508 35.5004963,17 34.8842852,17 Z" id="Shape" fill="#000000" fill-rule="nonzero"></path>
                            <path d="M34.8842852,14 L10.1157148,14 C9.49950368,14 9,13.7761508 9,13.5 C9,13.2238492 9.49950368,13 10.1157148,13 L34.8842852,13 C35.5004963,13 36,13.2238492 36,13.5 C36,13.7761508 35.5004963,14 34.8842852,14 Z" id="Shape" fill="#000000" fill-rule="nonzero"></path>
                            <g id="Rectangle-6">
                                <use fill="#F1F2F2" fill-rule="evenodd" xlink:href="#path-10"></use>
                                <rect stroke="#979797" stroke-width="1" x="43.5" y="5.5" width="35" height="44"></rect>
                            </g>
                            <path d="M75.462804,11 L63.537196,11 C63.2405018,11 63,10.7761508 63,10.5 C63,10.2238492 63.2405018,10 63.537196,10 L75.462804,10 C75.7594982,10 76,10.2238492 76,10.5 C76,10.7761508 75.7594982,11 75.462804,11 Z" id="Shape" fill="#000000" fill-rule="nonzero"></path>
                            <path d="M58.462804,11 L46.537196,11 C46.2405018,11 46,10.7761508 46,10.5 C46,10.2238492 46.2405018,10 46.537196,10 L58.462804,10 C58.7594982,10 59,10.2238492 59,10.5 C59,10.7761508 58.7594982,11 58.462804,11 Z" id="Shape" fill="#000000" fill-rule="nonzero"></path>
                            <path d="M75.462804,14 L63.537196,14 C63.2405018,14 63,13.7761508 63,13.5 C63,13.2238492 63.2405018,13 63.537196,13 L75.462804,13 C75.7594982,13 76,13.2238492 76,13.5 C76,13.7761508 75.7594982,14 75.462804,14 Z" id="Shape" fill="#000000" fill-rule="nonzero"></path>
                            <path d="M58.462804,14 L46.537196,14 C46.2405018,14 46,13.7761508 46,13.5 C46,13.2238492 46.2405018,13 46.537196,13 L58.462804,13 C58.7594982,13 59,13.2238492 59,13.5 C59,13.7761508 58.7594982,14 58.462804,14 Z" id="Shape" fill="#000000" fill-rule="nonzero"></path>
                            <path d="M75.462804,17 L63.537196,17 C63.2405018,17 63,16.7761508 63,16.5 C63,16.2238492 63.2405018,16 63.537196,16 L75.462804,16 C75.7594982,16 76,16.2238492 76,16.5 C76,16.7761508 75.7594982,17 75.462804,17 Z" id="Shape" fill="#000000" fill-rule="nonzero"></path>
                            <path d="M58.462804,17 L46.537196,17 C46.2405018,17 46,16.7761508 46,16.5 C46,16.2238492 46.2405018,16 46.537196,16 L58.462804,16 C58.7594982,16 59,16.2238492 59,16.5 C59,16.7761508 58.7594982,17 58.462804,17 Z" id="Shape" fill="#000000" fill-rule="nonzero"></path>
                            <path d="M75.462804,20 L63.537196,20 C63.2405018,20 63,19.7761508 63,19.5 C63,19.2238492 63.2405018,19 63.537196,19 L75.462804,19 C75.7594982,19 76,19.2238492 76,19.5 C76,19.7761508 75.7594982,20 75.462804,20 Z" id="Shape" fill="#000000" fill-rule="nonzero"></path>
                            <path d="M58.462804,20 L46.537196,20 C46.2405018,20 46,19.7761508 46,19.5 C46,19.2238492 46.2405018,19 46.537196,19 L58.462804,19 C58.7594982,19 59,19.2238492 59,19.5 C59,19.7761508 58.7594982,20 58.462804,20 Z" id="Shape" fill="#000000" fill-rule="nonzero"></path>
                            <path d="M75.462804,23 L63.537196,23 C63.2405018,23 63,22.7761508 63,22.5 C63,22.2238492 63.2405018,22 63.537196,22 L75.462804,22 C75.7594982,22 76,22.2238492 76,22.5 C76,22.7761508 75.7594982,23 75.462804,23 Z" id="Shape" fill="#000000" fill-rule="nonzero"></path>
                            <path d="M58.462804,23 L46.537196,23 C46.2405018,23 46,22.7761508 46,22.5 C46,22.2238492 46.2405018,22 46.537196,22 L58.462804,22 C58.7594982,22 59,22.2238492 59,22.5 C59,22.7761508 58.7594982,23 58.462804,23 Z" id="Shape" fill="#000000" fill-rule="nonzero"></path>
                            <path d="M75.462804,26 L63.537196,26 C63.2405018,26 63,25.7761508 63,25.5 C63,25.2238492 63.2405018,25 63.537196,25 L75.462804,25 C75.7594982,25 76,25.2238492 76,25.5 C76,25.7761508 75.7594982,26 75.462804,26 Z" id="Shape" fill="#000000" fill-rule="nonzero"></path>
                            <path d="M58.462804,26 L46.537196,26 C46.2405018,26 46,25.7761508 46,25.5 C46,25.2238492 46.2405018,25 46.537196,25 L58.462804,25 C58.7594982,25 59,25.2238492 59,25.5 C59,25.7761508 58.7594982,26 58.462804,26 Z" id="Shape" fill="#000000" fill-rule="nonzero"></path>
                            <path d="M75.462804,31 L63.537196,31 C63.2405018,31 63,30.7761508 63,30.5 C63,30.2238492 63.2405018,30 63.537196,30 L75.462804,30 C75.7594982,30 76,30.2238492 76,30.5 C76,30.7761508 75.7594982,31 75.462804,31 Z" id="Shape" fill="#000000" fill-rule="nonzero"></path>
                            <path d="M58.462804,31 L46.537196,31 C46.2405018,31 46,30.7761508 46,30.5 C46,30.2238492 46.2405018,30 46.537196,30 L58.462804,30 C58.7594982,30 59,30.2238492 59,30.5 C59,30.7761508 58.7594982,31 58.462804,31 Z" id="Shape" fill="#000000" fill-rule="nonzero"></path>
                            <path d="M75.462804,34 L63.537196,34 C63.2405018,34 63,33.7761508 63,33.5 C63,33.2238492 63.2405018,33 63.537196,33 L75.462804,33 C75.7594982,33 76,33.2238492 76,33.5 C76,33.7761508 75.7594982,34 75.462804,34 Z" id="Shape" fill="#000000" fill-rule="nonzero"></path>
                            <path d="M58.462804,34 L46.537196,34 C46.2405018,34 46,33.7761508 46,33.5 C46,33.2238492 46.2405018,33 46.537196,33 L58.462804,33 C58.7594982,33 59,33.2238492 59,33.5 C59,33.7761508 58.7594982,34 58.462804,34 Z" id="Shape" fill="#000000" fill-rule="nonzero"></path>
                            <path d="M75.462804,37 L63.537196,37 C63.2405018,37 63,36.7761508 63,36.5 C63,36.2238492 63.2405018,36 63.537196,36 L75.462804,36 C75.7594982,36 76,36.2238492 76,36.5 C76,36.7761508 75.7594982,37 75.462804,37 Z" id="Shape" fill="#000000" fill-rule="nonzero"></path>
                            <path d="M58.462804,37 L46.537196,37 C46.2405018,37 46,36.7761508 46,36.5 C46,36.2238492 46.2405018,36 46.537196,36 L58.462804,36 C58.7594982,36 59,36.2238492 59,36.5 C59,36.7761508 58.7594982,37 58.462804,37 Z" id="Shape" fill="#000000" fill-rule="nonzero"></path>
                            <path d="M75.462804,40 L63.537196,40 C63.2405018,40 63,39.7761508 63,39.5 C63,39.2238492 63.2405018,39 63.537196,39 L75.462804,39 C75.7594982,39 76,39.2238492 76,39.5 C76,39.7761508 75.7594982,40 75.462804,40 Z" id="Shape" fill="#000000" fill-rule="nonzero"></path>
                            <path d="M58.462804,40 L46.537196,40 C46.2405018,40 46,39.7761508 46,39.5 C46,39.2238492 46.2405018,39 46.537196,39 L58.462804,39 C58.7594982,39 59,39.2238492 59,39.5 C59,39.7761508 58.7594982,40 58.462804,40 Z" id="Shape" fill="#000000" fill-rule="nonzero"></path>
                            <path d="M75.462804,43 L63.537196,43 C63.2405018,43 63,42.7761508 63,42.5 C63,42.2238492 63.2405018,42 63.537196,42 L75.462804,42 C75.7594982,42 76,42.2238492 76,42.5 C76,42.7761508 75.7594982,43 75.462804,43 Z" id="Shape" fill="#000000" fill-rule="nonzero"></path>
                            <path d="M58.462804,43 L46.537196,43 C46.2405018,43 46,42.7761508 46,42.5 C46,42.2238492 46.2405018,42 46.537196,42 L58.462804,42 C58.7594982,42 59,42.2238492 59,42.5 C59,42.7761508 58.7594982,43 58.462804,43 Z" id="Shape" fill="#000000" fill-rule="nonzero"></path>
                            <path d="M75.462804,46 L63.537196,46 C63.2405018,46 63,45.7761508 63,45.5 C63,45.2238492 63.2405018,45 63.537196,45 L75.462804,45 C75.7594982,45 76,45.2238492 76,45.5 C76,45.7761508 75.7594982,46 75.462804,46 Z" id="Shape" fill="#000000" fill-rule="nonzero"></path>
                            <path d="M58.462804,46 L46.537196,46 C46.2405018,46 46,45.7761508 46,45.5 C46,45.2238492 46.2405018,45 46.537196,45 L58.462804,45 C58.7594982,45 59,45.2238492 59,45.5 C59,45.7761508 58.7594982,46 58.462804,46 Z" id="Shape" fill="#000000" fill-rule="nonzero"></path>
                            <path d="M37.090899,48 L16.909101,48 C16.407003,48 16,47.7761508 16,47.5 C16,47.2238492 16.407003,47 16.909101,47 L37.090899,47 C37.592997,47 38,47.2238492 38,47.5 C38,47.7761508 37.592997,48 37.090899,48 Z" id="Shape" fill="#000000" fill-rule="nonzero"></path>
                            <path d="M75.462804,67 L63.537196,67 C63.2405018,67 63,66.7761508 63,66.5 C63,66.2238492 63.2405018,66 63.537196,66 L75.462804,66 C75.7594982,66 76,66.2238492 76,66.5 C76,66.7761508 75.7594982,67 75.462804,67 Z" id="Shape" fill="#000000" fill-rule="nonzero"></path>
                            <path d="M37.090899,42 L16.909101,42 C16.407003,42 16,41.7761508 16,41.5 C16,41.2238492 16.407003,41 16.909101,41 L37.090899,41 C37.592997,41 38,41.2238492 38,41.5 C38,41.7761508 37.592997,42 37.090899,42 Z" id="Shape" fill="#000000" fill-rule="nonzero"></path>
                            <path d="M37.090899,45 L16.909101,45 C16.407003,45 16,44.7761508 16,44.5 C16,44.2238492 16.407003,44 16.909101,44 L37.090899,44 C37.592997,44 38,44.2238492 38,44.5 C38,44.7761508 37.592997,45 37.090899,45 Z" id="Shape" fill="#000000" fill-rule="nonzero"></path>
                            <path d="M75.462804,70 L63.537196,70 C63.2405018,70 63,69.7761508 63,69.5 C63,69.2238492 63.2405018,69 63.537196,69 L75.462804,69 C75.7594982,69 76,69.2238492 76,69.5 C76,69.7761508 75.7594982,70 75.462804,70 Z" id="Shape" fill="#000000" fill-rule="nonzero"></path>
                            <path d="M75.462804,73 L63.537196,73 C63.2405018,73 63,72.7761508 63,72.5 C63,72.2238492 63.2405018,72 63.537196,72 L75.462804,72 C75.7594982,72 76,72.2238492 76,72.5 C76,72.7761508 75.7594982,73 75.462804,73 Z" id="Shape" fill="#000000" fill-rule="nonzero"></path>
                            <path d="M58.462804,73 L46.537196,73 C46.2405018,73 46,72.7761508 46,72.5 C46,72.2238492 46.2405018,72 46.537196,72 L58.462804,72 C58.7594982,72 59,72.2238492 59,72.5 C59,72.7761508 58.7594982,73 58.462804,73 Z" id="Shape" fill="#000000" fill-rule="nonzero"></path>
                            <path d="M75.462804,76 L63.537196,76 C63.2405018,76 63,75.7761508 63,75.5 C63,75.2238492 63.2405018,75 63.537196,75 L75.462804,75 C75.7594982,75 76,75.2238492 76,75.5 C76,75.7761508 75.7594982,76 75.462804,76 Z" id="Shape" fill="#000000" fill-rule="nonzero"></path>
                            <path d="M58.462804,76 L46.537196,76 C46.2405018,76 46,75.7761508 46,75.5 C46,75.2238492 46.2405018,75 46.537196,75 L58.462804,75 C58.7594982,75 59,75.2238492 59,75.5 C59,75.7761508 58.7594982,76 58.462804,76 Z" id="Shape" fill="#000000" fill-rule="nonzero"></path>
                            <path d="M75.462804,79 L63.537196,79 C63.2405018,79 63,78.7761508 63,78.5 C63,78.2238492 63.2405018,78 63.537196,78 L75.462804,78 C75.7594982,78 76,78.2238492 76,78.5 C76,78.7761508 75.7594982,79 75.462804,79 Z" id="Shape" fill="#000000" fill-rule="nonzero"></path>
                            <path d="M58.462804,79 L46.537196,79 C46.2405018,79 46,78.7761508 46,78.5 C46,78.2238492 46.2405018,78 46.537196,78 L58.462804,78 C58.7594982,78 59,78.2238492 59,78.5 C59,78.7761508 58.7594982,79 58.462804,79 Z" id="Shape" fill="#000000" fill-rule="nonzero"></path>
                            <path d="M37.5950258,77 L6.40497424,77 C5.62900464,77 5,76.7761508 5,76.5 C5,76.2238492 5.62900464,76 6.40497424,76 L37.5950258,76 C38.3709954,76 39,76.2238492 39,76.5 C39,76.7761508 38.3709954,77 37.5950258,77 Z" id="Shape" fill="#000000" fill-rule="nonzero"></path>
                            <path d="M37.5950258,79 L6.40497424,79 C5.62900464,79 5,78.7761508 5,78.5 C5,78.2238492 5.62900464,78 6.40497424,78 L37.5950258,78 C38.3709954,78 39,78.2238492 39,78.5 C39,78.7761508 38.3709954,79 37.5950258,79 Z" id="Shape" fill="#000000" fill-rule="nonzero"></path>
                            <path d="M37.5950258,81 L6.40497424,81 C5.62900464,81 5,80.7761508 5,80.5 C5,80.2238492 5.62900464,80 6.40497424,80 L37.5950258,80 C38.3709954,80 39,80.2238492 39,80.5 C39,80.7761508 38.3709954,81 37.5950258,81 Z" id="Shape" fill="#000000" fill-rule="nonzero"></path>
                            <path d="M18.462804,61 L6.53719603,61 C6.24050177,61 6,60.7761508 6,60.5 C6,60.2238492 6.24050177,60 6.53719603,60 L18.462804,60 C18.7594982,60 19,60.2238492 19,60.5 C19,60.7761508 18.7594982,61 18.462804,61 Z" id="Shape" fill="#000000" fill-rule="nonzero"></path>
                            <path d="M18.462804,64 L6.53719603,64 C6.24050177,64 6,63.7761508 6,63.5 C6,63.2238492 6.24050177,63 6.53719603,63 L18.462804,63 C18.7594982,63 19,63.2238492 19,63.5 C19,63.7761508 18.7594982,64 18.462804,64 Z" id="Shape" fill="#000000" fill-rule="nonzero"></path>
                            <path d="M18.462804,67 L6.53719603,67 C6.24050177,67 6,66.7761508 6,66.5 C6,66.2238492 6.24050177,66 6.53719603,66 L18.462804,66 C18.7594982,66 19,66.2238492 19,66.5 C19,66.7761508 18.7594982,67 18.462804,67 Z" id="Shape" fill="#000000" fill-rule="nonzero"></path>
                        </g>
                    </g>
                </g>
            </g>
        </g>
    </g>
</svg>