<?xml version="1.0" encoding="UTF-8"?>
<svg width="79px" height="81px" viewBox="0 0 79 81" version="1.1" xmlns="http://www.w3.org/2000/svg" xmlns:xlink="http://www.w3.org/1999/xlink">
    <!-- Generator: Sketch 46.2 (44496) - http://www.bohemiancoding.com/sketch -->
    <title>item menu copy</title>
    <desc>Created with Sketch.</desc>
    <defs></defs>
    <g id="paginadorCarpetaInvestigación-Correcciones" stroke="none" stroke-width="1" fill="none" fill-rule="evenodd">
        <g id="Detalle-de-caso-NIC" transform="translate(-184.000000, -1525.000000)">
            <g id="Detalle-pre-denuncia" transform="translate(133.000000, 649.000000)">
                <g id="Acuerdos" transform="translate(51.000000, 876.000000)">
                    <g id="item-menu-copy">
                        <g>
                            <ellipse id="Oval-2" fill="#CF455D" cx="39.5" cy="40.4132948" rx="39.5" ry="40.4132948"></ellipse>
                            <g id="law-book" transform="translate(25.115607, 21.462428)" fill-rule="nonzero" fill="#FFFFFF">
                                <path d="M26.6784657,30.3669334 L26.6784657,27.4755224 L26.6783305,27.4755224 C27.0765801,27.4755224 27.3987087,27.15143 27.3987087,26.7510088 L27.3987087,0.722818861 C27.3987087,0.323482285 27.0765125,0 26.6783305,0 L2.88354089,0 C1.29284091,0 0,1.29745409 0,2.89188553 L0,28.9201433 C0,30.5152526 1.29284091,31.8137235 2.88354089,31.8137235 L3.60385149,31.8137235 L3.60385149,33.9827902 C3.60385149,34.2147592 3.71580216,34.4329674 3.90387387,34.5685426 C4.09187798,34.7052023 4.33369412,34.7411975 4.55340406,34.6681225 L6.48948808,34.0209546 L8.42455805,34.6681225 C8.4985158,34.6924582 8.57551568,34.7052023 8.65265077,34.7052023 C8.80158031,34.7052023 8.94949581,34.6585645 9.0730742,34.5685426 C9.26107831,34.4329674 9.37309658,34.2147592 9.37309658,33.9827902 L9.37309658,31.8136557 L25.2356812,31.8136557 L25.9580875,31.8136557 L26.6784657,31.8136557 C27.0767154,31.8136557 27.3988439,31.4895633 27.3988439,31.0891422 C27.3988439,30.6908902 27.0766477,30.3669334 26.6784657,30.3669334 Z M1.4406888,23.1374568 C1.83995247,23.1374568 2.16316269,22.8133644 2.16316269,22.4129433 C2.16316269,22.0146913 1.84002007,21.6907345 1.4406888,21.6907345 L1.4406888,18.7993235 C1.83995247,18.7993235 2.16316269,18.4752311 2.16316269,18.0753522 C2.16316269,17.6760157 1.84002007,17.3526012 1.4406888,17.3526012 L1.4406888,14.4606478 C1.83995247,14.4606478 2.16316269,14.1366233 2.16316269,13.7372867 C2.16316269,13.3379501 1.84002007,13.0144678 1.4406888,13.0144678 L1.4406888,10.1225145 C1.83995247,10.1225145 2.16316269,9.79848991 2.16316269,9.39915333 C2.16316269,8.99981676 1.84002007,8.67633447 1.4406888,8.67633447 L1.4406888,5.78431336 C1.83995247,5.78431336 2.16316269,5.46028878 2.16316269,5.0609522 C2.16316269,4.66161563 1.84002007,4.33813334 1.4406888,4.33813334 L1.4406888,2.89188553 C1.4406888,2.09490707 2.0881233,1.44618002 2.88354089,1.44618002 L3.60385149,1.44618002 L3.60385149,26.0288678 L2.88354089,26.0288678 C2.35853554,26.0288678 1.86530361,26.170815 1.4406888,26.4185108 L1.4406888,23.1374568 Z M7.93017688,32.9786529 L6.71656676,32.5731477 C6.56865126,32.5233916 6.40917565,32.5233916 6.26139536,32.5731477 L5.04670359,32.9786529 L5.04670359,29.644589 L7.93017688,29.644589 L7.93017688,32.9786529 Z M25.2356136,28.1977989 L20.18891,28.1977989 C19.7906604,28.1977989 19.4685318,28.5217557 19.4685318,28.9200077 C19.4685318,29.3203611 19.790728,29.6445213 20.18891,29.6445213 L25.2356136,29.6445213 L25.2356136,30.3668656 L9.37302898,30.3668656 L9.37302898,29.644589 C9.77121099,29.644589 10.0933396,29.3204967 10.0933396,28.9200755 C10.0933396,28.5218235 9.77114339,28.1978667 9.37302898,28.1978667 L3.60385149,28.1978667 C3.20668352,28.1978667 2.88354089,28.5218235 2.88354089,28.9200755 C2.88354089,29.3204289 3.20668352,29.644589 3.60385149,29.644589 L3.60385149,30.3669334 L2.88354089,30.3669334 C2.0881233,30.3669334 1.4406888,29.7187486 1.4406888,28.9200755 C1.4406888,28.1237071 2.0881233,27.4754546 2.88354089,27.4754546 L25.2356136,27.4754546 L25.2356136,28.1977989 Z M25.9579523,26.0288001 L25.235546,26.0288001 L5.04670359,26.0288001 L5.04670359,1.44618002 L25.9579523,1.44618002 L25.9579523,26.0288001 Z" id="Shape"></path>
                                <path d="M10.1286741,17.1705725 C11.6856358,17.1705725 12.9531733,15.8593698 12.9531733,14.2479743 C12.9531733,14.2463987 12.9521146,14.2447545 12.9521146,14.2431789 C12.9521146,14.2266005 12.9510559,14.210022 12.9500634,14.1933751 C12.9490046,14.1848119 12.9490046,14.1767967 12.9480121,14.1682334 C12.9469534,14.1559709 12.9449022,14.1437083 12.9428509,14.1313773 C12.9407997,14.1184982 12.9387484,14.1062356 12.936631,14.0939046 C12.9345798,14.0853413 12.9325285,14.0778742 12.9304111,14.0697905 C12.9263086,14.0532121 12.9221399,14.0371132 12.9179713,14.0210828 C12.9169126,14.0195072 12.9169126,14.0184111 12.91592,14.0168354 L11.1087063,8.40236694 L14.3633055,8.40236694 L14.3633055,18.6326251 L10.8357583,18.6326251 C10.4450291,18.6326251 10.1286079,18.9591242 10.1286079,19.3626238 C10.1286079,19.766055 10.4449629,20.0924855 10.8357583,20.0924855 L19.3048889,20.0924855 C19.6936331,20.0924855 20.0099881,19.7659865 20.0099881,19.3626238 C20.0099881,18.9590556 19.6936331,18.6326251 19.3048889,18.6326251 L15.7754228,18.6326251 L15.7754228,8.40236694 L19.0309483,8.40236694 L17.2227421,14.0168354 C17.2227421,14.0184111 17.2227421,14.0195072 17.2216834,14.0210828 C17.2165222,14.0371132 17.2123536,14.0532121 17.2082511,14.0697905 C17.2071924,14.0778057 17.2041486,14.0853413 17.2030899,14.0939046 C17.1999799,14.1062356 17.1989874,14.1184982 17.19687,14.1313773 C17.1948187,14.1437083 17.1927675,14.1559709 17.1917088,14.1682334 C17.1896575,14.1767967 17.1896575,14.1848119 17.1896575,14.1933751 C17.1885988,14.2099535 17.1876063,14.226532 17.1876063,14.2431789 C17.1876063,14.2447545 17.1876063,14.2463987 17.1876063,14.2479743 C17.1876063,15.8593698 18.4530926,17.1705725 20.0099881,17.1705725 C21.5668836,17.1705725 22.8323699,15.8593698 22.8323699,14.2479743 C22.8323699,14.2463987 22.8323699,14.2447545 22.8323699,14.2431789 C22.8323699,14.2266005 22.8313112,14.210022 22.8303187,14.1933751 C22.8303187,14.1848119 22.8303187,14.1767967 22.8282675,14.1682334 C22.8272087,14.1559709 22.8251575,14.1437083 22.8231063,14.1313773 C22.821055,14.1184982 22.8199963,14.1062356 22.8168863,14.0939046 C22.8158276,14.0853413 22.8127839,14.0778742 22.8117251,14.0697905 C22.8076227,14.0532121 22.803454,14.0371132 22.7982928,14.0210828 C22.7972341,14.0195072 22.7972341,14.0184111 22.7972341,14.0168354 L20.6840539,7.45513604 C20.6840539,7.45513604 20.6840539,7.45356041 20.6840539,7.45246431 L20.6799514,7.4406813 C20.6779002,7.43588589 20.6758489,7.43157002 20.6737315,7.4267746 C20.6716803,7.41766332 20.6685703,7.40910009 20.6654604,7.40053685 C20.6613579,7.39252166 20.6592405,7.38498601 20.655138,7.37751887 C20.6530867,7.37053127 20.6499768,7.36416022 20.6468668,7.35772067 C20.6427643,7.35025353 20.6406469,7.34326593 20.6365444,7.33634683 C20.6324419,7.32887969 20.629332,7.32189209 20.6251633,7.31442495 C20.6220534,7.30743735 20.6179509,7.30051825 20.6137822,7.29353065 C20.6096797,7.2870911 20.6055111,7.28065155 20.6013424,7.2742805 C20.5971737,7.26790945 20.59413,7.26194944 20.5899613,7.25557839 C20.5848001,7.24859079 20.5806314,7.24112365 20.5744777,7.23420456 C20.5703752,7.22831305 20.5662066,7.2218735 20.5610454,7.21598199 C20.5569429,7.21063853 20.5527742,7.20529507 20.5486055,7.20043115 C20.5434443,7.19344355 20.5372244,7.18707251 20.5320632,7.18008491 C20.526902,7.1741934 20.5206821,7.16830189 20.5155209,7.16241039 C20.5103597,7.15761497 20.5061911,7.1532991 20.5020886,7.14850369 C20.4958687,7.14261218 20.4907075,7.13672068 20.4844876,7.13137722 C20.4782677,7.12548571 20.4720478,7.11959421 20.4648353,7.11425075 C20.4607328,7.11000338 20.4555055,7.10568751 20.4503443,7.10137164 C20.4441243,7.09602818 20.4379044,7.09123277 20.4317507,7.0869169 C20.4255308,7.08157344 20.4193109,7.07622998 20.4120984,7.07136606 C20.4058785,7.0671187 20.4007173,7.06335087 20.3944974,7.059035 C20.3882775,7.05471913 20.3820576,7.05101981 20.3759039,7.04670394 C20.3686914,7.04245658 20.3614128,7.03868875 20.3552591,7.03437288 C20.3480466,7.03060506 20.340768,7.02690574 20.3346143,7.02313792 C20.3274018,7.01937009 20.3201232,7.01567078 20.3129108,7.012451 C20.3066909,7.00923122 20.300471,7.00601145 20.2943172,7.00333972 C20.2871048,6.99957189 20.2798262,6.99635212 20.2726137,6.99368039 C20.2643426,6.98991256 20.2550127,6.98669279 20.2467416,6.98354151 C20.2415804,6.98196588 20.2374117,6.97977369 20.2333092,6.97819806 C20.231258,6.97819806 20.2301993,6.97765001 20.2292067,6.97710196 C20.2219943,6.97497828 20.2147157,6.9728546 20.2085619,6.97066241 C20.1982395,6.96744263 20.1889097,6.96531895 20.1795798,6.96264722 C20.1723674,6.96107158 20.1650888,6.9588794 20.158935,6.95730376 C20.1537738,6.95620767 20.1486126,6.95518008 20.1423927,6.95408398 C20.1320703,6.9519603 20.1217479,6.95086421 20.1113593,6.94928857 C20.1030882,6.94771294 20.094817,6.94606879 20.0865459,6.94552075 C20.0824434,6.9449727 20.0793334,6.94442465 20.0762235,6.94442465 C20.0659011,6.94332856 20.05452,6.94284902 20.0441976,6.94230097 C20.0348677,6.94175292 20.0245453,6.94120488 20.0142229,6.94120488 C20.0121717,6.94120488 20.0121717,6.94065683 20.0101204,6.94065683 L19.9976806,6.94065683 L19.9956294,6.94065683 L15.7755551,6.94065683 L15.7755551,6.21031557 C15.7755551,5.80674739 15.4592001,5.47976879 15.070456,5.47976879 C14.6797267,5.47976879 14.3633717,5.80674739 14.3633717,6.21031557 L14.3633717,6.94079384 L10.1452825,6.94079384 C10.1432313,6.94079384 10.14118,6.94079384 10.1401213,6.94079384 L10.1287402,6.94079384 C10.1276815,6.94079384 10.126689,6.94134189 10.1246377,6.94134189 C10.1153079,6.94134189 10.1060442,6.94188994 10.0967143,6.94243798 C10.0853332,6.94298603 10.0750108,6.94353408 10.062571,6.94456167 C10.059461,6.94456167 10.0563511,6.94510971 10.0522486,6.94565776 C10.0439775,6.94620581 10.036765,6.94778144 10.0294864,6.94887754 C10.0181053,6.95045317 10.0067242,6.95209731 9.99640178,6.95476904 C9.99018188,6.95531709 9.98607939,6.95634468 9.97985948,6.95744077 C9.97363957,6.95901641 9.96741967,6.9612086 9.96126593,6.96278423 C9.95094353,6.96545596 9.94062113,6.96757964 9.93023257,6.97079942 C9.92401266,6.9729231 9.91779275,6.97504678 9.91058031,6.97723897 C9.9095216,6.97778702 9.90747035,6.97833507 9.90647782,6.97833507 C9.90131662,6.9799107 9.89714796,6.98210289 9.89304546,6.98367853 C9.88477431,6.9868983 9.87544445,6.99011808 9.86618076,6.9938174 C9.85996086,6.99703717 9.8516897,6.9997089 9.84553597,7.00347673 C9.83931606,7.00614846 9.83309615,7.00936823 9.82694242,7.01203996 C9.81972997,7.01580779 9.81245136,7.01950711 9.8041802,7.02327493 C9.7979603,7.02704275 9.79174039,7.03074207 9.78452795,7.03450989 C9.7773155,7.03875726 9.7710956,7.04252508 9.76487569,7.04684095 C9.75865578,7.05115683 9.75144334,7.05485614 9.74522343,7.05917201 C9.73900352,7.06348789 9.73384233,7.0671872 9.72762242,7.07150307 C9.72040997,7.07629849 9.71419007,7.08164195 9.70697762,7.08650586 C9.70075772,7.09130128 9.69453781,7.09664473 9.68845024,7.10150865 C9.68434775,7.10575602 9.67912038,7.11007189 9.67395918,7.11438776 C9.66773928,7.11973122 9.66151937,7.12507468 9.65536563,7.13096618 C9.6492119,7.13685769 9.64292582,7.1427492 9.63677208,7.1486407 C9.63266959,7.15343611 9.62850093,7.15775199 9.62433227,7.1625474 C9.61811236,7.1684389 9.61295116,7.17433041 9.60778996,7.18022192 C9.60157006,7.18666147 9.59640886,7.19358056 9.59124766,7.20056817 C9.58714517,7.20536358 9.58297651,7.21070704 9.57880785,7.216119 C9.57364665,7.22201051 9.56848545,7.22790201 9.56431679,7.23434157 C9.5602143,7.24132917 9.55399439,7.24879631 9.54982573,7.2557154 C9.54572324,7.26215496 9.54155458,7.26859451 9.53738592,7.27441751 C9.53328342,7.28085707 9.53017347,7.28729662 9.52600481,7.29311962 C9.52190232,7.30058676 9.51773366,7.30757436 9.51462371,7.31449346 C9.51052121,7.3219606 9.50635255,7.3289482 9.50218389,7.33641534 C9.49907394,7.34340294 9.49596399,7.35032203 9.49285403,7.35778918 C9.48974408,7.36422873 9.48663413,7.37066828 9.48352417,7.37758738 C9.48041422,7.38505452 9.47730427,7.39313821 9.47419431,7.40060536 C9.47108436,7.40916859 9.46797441,7.41773183 9.46486445,7.42629506 C9.46281321,7.43109048 9.46076196,7.43595439 9.45970325,7.44074981 L9.4565933,7.45253282 C9.45553459,7.45362891 9.45553459,7.4546565 9.45454205,7.45520455 L7.34261911,14.0168354 C7.34156041,14.0184111 7.34156041,14.0195072 7.34156041,14.0210828 C7.33639921,14.0371132 7.33223055,14.0532121 7.32912059,14.0697905 C7.32706935,14.0778057 7.32395939,14.0853413 7.32290069,14.0933565 C7.31979073,14.1062356 7.31879819,14.1184982 7.31668078,14.1313773 C7.31462953,14.1437083 7.31257829,14.1559709 7.31046087,14.1682334 C7.31046087,14.1767967 7.30940217,14.1853599 7.30840963,14.1939231 C7.30840963,14.2105016 7.30635838,14.2266005 7.30635838,14.2431789 C7.30635838,14.2447545 7.30635838,14.2463987 7.30635838,14.2479743 C7.30635838,15.8593698 8.57283722,17.1705725 10.1286741,17.1705725 Z M20.0101204,15.7089993 C19.4890378,15.7089993 19.0321394,15.4151776 18.7881073,14.9785211 L21.2321336,14.9785211 C20.9881015,15.4151776 20.531203,15.7089993 20.0101204,15.7089993 Z M20.0101204,9.9821127 L21.1483633,13.516948 L18.8718775,13.516948 L20.0101204,9.9821127 Z M10.1287402,9.9821127 L11.2680418,13.516948 L8.99155603,13.516948 L10.1287402,9.9821127 Z M11.3517459,14.9785211 C11.1067213,15.4151776 10.6508815,15.7089993 10.1287402,15.7089993 C9.6077238,15.7089993 9.15175171,15.4151776 8.9067271,14.9785211 L11.3517459,14.9785211 Z" id="Shape"></path>
                            </g>
                        </g>
                    </g>
                </g>
            </g>
        </g>
    </g>
</svg>