<?xml version="1.0" encoding="UTF-8"?>
<svg width="79px" height="81px" viewBox="0 0 79 81" version="1.1" xmlns="http://www.w3.org/2000/svg" xmlns:xlink="http://www.w3.org/1999/xlink">
    <!-- Generator: Sketch 46.2 (44496) - http://www.bohemiancoding.com/sketch -->
    <title>item menu copy 3</title>
    <desc>Created with Sketch.</desc>
    <defs></defs>
    <g id="paginadorCarpetaInvestigación-Correcciones" stroke="none" stroke-width="1" fill="none" fill-rule="evenodd">
        <g id="Detalle-de-caso-NIC" transform="translate(-183.000000, -1824.000000)">
            <g id="Detalle-pre-denuncia" transform="translate(133.000000, 649.000000)">
                <g id="Entrevistas" transform="translate(50.000000, 1175.000000)">
                    <g id="entrevistas">
                        <g id="item-menu-copy-3">
                            <ellipse id="Oval-2" fill="#CF455D" cx="39.5" cy="40.4132948" rx="39.5" ry="40.4132948"></ellipse>
                            <g id="bible" transform="translate(27.855491, 23.745665)" fill-rule="nonzero" fill="#FFFFFF">
                                <path d="M26.3608822,15.6254471 C26.0298179,15.429453 25.6530483,15.3255318 25.2688832,15.3255318 C24.8754571,15.3255318 24.4933574,15.4356751 24.1654245,15.6327282 L24.1654245,9.17836075 C24.1654245,8.01073648 23.2088094,7.06035388 22.033528,7.06035388 C21.7826148,7.06035388 21.5421618,7.10430527 21.3184319,7.18340453 L21.3184319,0.705803716 C21.3184319,0.315867517 21.0008928,0 20.6085327,0 L2.84286179,0 C1.27621968,0 0,1.26691204 0,2.82381059 L0,24.0033498 C0,25.5609103 1.27621968,26.8288152 2.84286179,26.8288152 L3.55382708,26.8288152 L3.55382708,28.9468221 C3.55382708,29.1733306 3.66316024,29.3864022 3.84944633,29.5187859 C4.03473304,29.6522286 4.27212123,29.6873765 4.48858888,29.6160217 L6.39568949,28.9840881 L8.30272347,29.6158893 C8.37661162,29.6396522 8.45263181,29.6520963 8.52758598,29.6520963 C8.67536229,29.6520963 8.82113983,29.6065563 8.94399804,29.5186535 C9.12928475,29.3862698 9.23855128,29.1731982 9.23855128,28.9466897 L9.23855128,26.8286828 L13.7501261,26.8286828 C13.9052313,26.9527925 14.0655332,27.0706802 14.2320981,27.1802939 L14.2320981,28.2392312 L14.2091788,28.2392312 C13.8166854,28.2392312 13.4992128,28.5556944 13.4992128,28.9466897 L13.4992128,33.1827034 C13.4992128,33.5715806 13.8166854,33.8880438 14.2091788,33.8880438 L21.3309576,33.8880438 C21.7223183,33.8880438 22.0408569,33.5715806 22.0408569,33.1827034 L22.0408569,28.9466897 C22.0408569,28.5578126 21.7264491,28.2444603 21.3382198,28.2402902 L21.3382198,27.1596421 C22.3406736,26.4873976 23.1442489,25.533904 23.6293523,24.4345235 L27.1000302,18.5262388 C27.699597,17.5236309 27.3685327,16.2231595 26.3608822,15.6254471 Z M4.97475829,1.41213697 L19.8975007,1.41213697 L19.8975007,5.76809035 C19.6757697,5.6905135 19.4383815,5.64861406 19.1907329,5.64861406 C18.2101325,5.64861406 17.3804397,6.31106211 17.1337906,7.20921935 C16.8902062,7.11357212 16.6258345,7.06028768 16.3489371,7.06028768 C15.1725897,7.06028768 14.2175736,8.01067029 14.2175736,9.17829456 L14.2175736,10.0061561 C13.9947765,9.92752013 13.7553895,9.88515735 13.5066083,9.88515735 C12.3313936,9.88515735 11.3747118,10.8351428 11.3747118,12.0031642 L11.3747118,21.1800688 L4.97475829,21.1800688 L4.97475829,1.41213697 Z M1.42193059,18.3567215 C1.81435731,18.3567215 2.1318965,18.0402583 2.1318965,17.6497925 C2.1318965,17.2598563 1.81435731,16.944055 1.42193059,16.944055 L1.42193059,14.1201782 C1.81435731,14.1201782 2.1318965,13.8037812 2.1318965,13.413845 C2.1318965,13.0239088 1.81435731,12.7080413 1.42193059,12.7080413 L1.42193059,9.88416447 C1.81435731,9.88416447 2.1318965,9.56776742 2.1318965,9.17783122 C2.1318965,8.78789502 1.81435731,8.4720275 1.42193059,8.4720275 L1.42193059,5.64815072 C1.81435731,5.64815072 2.1318965,5.33175367 2.1318965,4.94181747 C2.1318965,4.55188127 1.81435731,4.23601375 1.42193059,4.23601375 L1.42193059,2.82381059 L1.42199722,2.82381059 C1.42199722,2.04559299 2.05907435,1.41213697 2.84292842,1.41213697 L3.55389371,1.41213697 L3.55389371,21.1800688 L2.84286179,21.1800688 C2.32551145,21.1800688 1.84040805,21.3186745 1.42193059,21.5605395 L1.42193059,18.3567215 Z M6.17082697,27.5703625 L4.97475829,27.9663222 L4.97475829,24.7107421 L7.81762007,24.7107421 L7.81762007,27.9663222 L6.620552,27.5703625 C6.47484109,27.5217777 6.31660451,27.5217777 6.17082697,27.5703625 Z M9.23855128,25.4160163 L9.23855128,24.7107421 C9.63104463,24.7107421 9.94951657,24.3942789 9.94951657,24.0032836 C9.94951657,23.6144065 9.630978,23.2980756 9.23855128,23.2980756 L3.55382708,23.2980756 C3.16140036,23.2980756 2.84286179,23.6144065 2.84286179,24.0032836 C2.84286179,24.3942127 3.16140036,24.7107421 3.55382708,24.7107421 L3.55382708,25.4160825 L2.84286179,25.4160825 C2.05900773,25.4160825 1.42193059,24.783156 1.42193059,24.0032836 C1.42193059,23.2256617 2.05900773,22.5926691 2.84286179,22.5926691 L11.4152204,22.5926691 C11.5297504,23.6102364 11.8919955,24.5782922 12.4561839,25.4160163 L9.23855128,25.4160163 Z M20.6199923,32.4753773 L14.919611,32.4753773 L14.919611,29.6521624 L20.6199923,29.6521624 L20.6199923,32.4753773 Z M25.8778442,17.8059391 C25.8767782,17.8079911 25.8757788,17.8095797 25.8737134,17.8116316 L22.3907097,23.7416272 C22.3729872,23.7716121 22.3563307,23.8026561 22.3428056,23.834693 C21.9243281,24.8027488 21.1873121,25.6290879 20.2692068,26.1595494 C20.0506071,26.2867701 19.9173553,26.5184416 19.9173553,26.7697721 L19.9173553,28.2392974 L15.6535623,28.2392974 L15.6535623,26.7873129 C15.6535623,26.5349896 15.517179,26.3011999 15.2965139,26.1750383 C13.7543902,25.2950176 12.795643,23.6516063 12.795643,21.8862696 L12.795643,12.0031642 C12.795643,11.6138237 13.1141816,11.296831 13.5066083,11.296831 C13.8990351,11.296831 14.2175736,11.6138237 14.2175736,12.0031642 C14.2175736,12.0538672 14.2227704,12.1029815 14.2331641,12.1505735 C14.2019165,12.2317909 14.2477552,16.297162 14.2477552,16.297162 C14.252952,16.6834577 14.5704245,16.9921765 14.9571214,16.9921765 C14.9612522,16.9921765 14.9643837,16.9921765 14.9685811,16.9921765 C15.3610078,16.986484 15.6743496,16.6653211 15.6680867,16.2754511 C15.6680867,16.2754511 15.6379052,12.0906037 15.6379052,12.0032304 L15.6379052,9.17836075 C15.6379052,8.78895409 15.9564438,8.47255704 16.3489371,8.47255704 C16.7402978,8.47255704 17.0588364,8.78895409 17.0588364,9.17836075 L17.0588364,16.2867699 C17.0588364,16.6767061 17.3773083,16.9926398 17.7698017,16.9926398 C18.162295,16.9926398 18.4808336,16.6767061 18.4808336,16.2867699 L18.4808336,9.17836075 L18.4808336,7.76668713 C18.4808336,7.37734665 18.7993055,7.06035388 19.1907329,7.06035388 C19.5820936,7.06035388 19.9016982,7.37734665 19.9016982,7.76668713 L19.9016982,9.17836075 L19.9016982,16.2867699 C19.9016982,16.6767061 20.2192374,16.9926398 20.6127301,16.9926398 C21.0040908,16.9926398 21.3226294,16.6767061 21.3226294,16.2867699 L21.3226294,9.17836075 C21.3226294,8.78895409 21.6411013,8.47255704 22.0335947,8.47255704 C22.426088,8.47255704 22.7446266,8.78895409 22.7446266,9.17836075 L22.7446266,17.7067175 C22.7446266,18.0237103 22.9570301,18.3029737 23.2651084,18.3877655 C23.5742527,18.4715644 23.9011195,18.3412326 24.0645529,18.0681912 L24.6579234,17.0821974 C24.7870445,16.8665443 25.0160378,16.7378012 25.2689498,16.7378012 C25.3959388,16.7378012 25.5219285,16.7724195 25.632261,16.8376185 C25.9683888,17.0371207 26.078788,17.4714055 25.8778442,17.8059391 Z" id="Shape"></path>
                            </g>
                        </g>
                    </g>
                </g>
            </g>
        </g>
    </g>
</svg>