<svg width="85px" height="85px" viewBox="0 0 85 85" version="1.1" xmlns="http://www.w3.org/2000/svg" xmlns:xlink="http://www.w3.org/1999/xlink">
    <!-- Generator: Sketch 46.2 (44496) - http://www.bohemiancoding.com/sketch -->
    <desc>Created with Sketch.</desc>
    <defs></defs>
    <g id="paginadorCarpetaInvestigación-Correcciones" stroke="none" stroke-width="1" fill="none" fill-rule="evenodd">
        <g id="Detalle-de-caso-NIC" transform="translate(-772.000000, -1354.000000)" fill-rule="nonzero">
            <g id="Detalle-pre-denuncia" transform="translate(-46.000000, 649.000000)">
                <g id="Solicitudes-Preliminares" transform="translate(225.000000, 394.000000)">
                    <g id="Row-Copy" transform="translate(0.000000, 286.000000)">
                        <g id="Card-Menu-Copy" transform="translate(355.000000, 0.000000)">
                            <g id="051-fingerprint-1" transform="translate(238.000000, 25.000000)">
                                <path d="M28.9348633,49.7982129 L21.4216602,57.3102539 C20.7303711,58.0027051 20.7303711,59.1233105 21.4216602,59.8159277 L25.1775977,63.5718652 C25.5096289,63.9038965 25.9596973,64.0906641 26.4305176,64.0906641 C26.9000098,64.0906641 27.3500781,63.9038965 27.6821094,63.5718652 L35.1939844,56.0599902 C32.8126563,54.2909277 30.7025977,52.179541 28.9348633,49.7982129 Z" id="Shape" fill="#CCD1D9"></path>
                                <path d="M53.1241699,63.7508301 L53.1241699,63.7508301 C44.6097266,63.7508301 36.6062793,60.4358301 30.5858887,54.4154395 C24.565332,48.3950488 21.2491699,40.3902734 21.2491699,31.8771582 C21.2491699,23.3613867 24.565498,15.3566113 30.5858887,9.3362207 C36.6062793,3.31832031 44.6097266,0.0006640625 53.1241699,0.0006640625 C61.6372852,0.0006640625 69.6420605,3.31566406 75.6651074,9.33605469 C81.6828418,15.3564453 84.9980078,23.3612207 84.9980078,31.8769922 C84.9980078,40.3901074 81.6828418,48.3950488 75.6651074,54.4152734 C69.6420605,60.4358301 61.6372852,63.7508301 53.1241699,63.7508301 L53.1241699,63.7508301 Z M53.1241699,3.54393555 C45.5551855,3.54393555 38.441416,6.49071289 33.0902344,11.8418945 C27.7390527,17.1930762 24.7911133,24.3081738 24.7911133,31.8771582 C24.7911133,39.4434863 27.7378906,46.558584 33.0902344,51.9097656 C38.441416,57.2636035 45.5551855,60.2102148 53.1241699,60.2102148 L53.1241699,60.2102148 C60.6931543,60.2102148 67.8057617,57.2609473 73.1594336,51.9097656 C78.5106152,46.558584 81.4572266,39.4434863 81.4572266,31.8771582 C81.4572266,24.3081738 78.5106152,17.1930762 73.1594336,11.8418945 C67.8057617,6.49071289 60.6931543,3.54393555 53.1241699,3.54393555 Z" id="Shape" fill="#E6E9ED"></path>
                                <g id="Group" transform="translate(31.875000, 10.126953)" fill="#AC92EB">
                                    <path d="M9.54556641,40.8411719 C9.22266602,40.8411719 8.89710937,40.7555078 8.60525391,40.5713965 C7.77650391,40.0499414 7.52748047,38.9578906 8.04760742,38.1279785 C9.65580078,35.5703418 8.85427734,31.8844629 8.00610352,27.9779492 C7.20458008,24.2920703 6.3771582,20.4816797 7.34469727,16.8837891 C8.47825195,12.6791113 11.8385742,9.70128906 17.6179102,7.78430664 C21.5294043,6.48473633 25.4591602,7.23180664 28.9790234,9.94250977 C31.9437305,12.2224023 34.3899707,15.7268262 36.0604199,20.0794238 C37.7282129,24.4345117 38.4571875,29.2383398 38.1666602,33.9724414 C38.1044043,34.9477832 37.2638672,35.689541 36.2886914,35.6324316 C35.3133496,35.5701758 34.5714258,34.7324609 34.6285352,33.7544629 C35.147334,25.3241895 31.9359277,16.6865625 26.8211523,12.7490039 C24.2376172,10.7594727 21.5164551,10.2200879 18.7332031,11.145957 C14.1056836,12.6816016 11.5752734,14.7983008 10.7647852,17.8045117 C10.0203711,20.569668 10.7556543,23.9545605 11.4663672,27.2255664 C12.4287598,31.6533691 13.4235254,36.231582 11.0461816,40.013418 C10.710332,40.5479883 10.1344238,40.8411719 9.54556641,40.8411719 Z" id="Shape"></path>
                                    <path d="M16.4765527,43.4403125 C16.2741797,43.4403125 16.0718066,43.4066113 15.8695996,43.3338965 C14.9513672,42.999209 14.4792188,41.9823633 14.81125,41.0641309 C16.1342285,37.4353613 15.490918,33.1191211 14.8683594,28.942832 C14.4274219,25.9623535 14.0070703,23.1427441 14.3703125,20.7487988 C14.832002,17.700918 16.5363184,15.7191895 19.433623,14.8529199 C21.5968066,14.2096094 23.6927539,14.609043 25.4930273,16.012373 C27.1063672,17.2704395 29.3474121,20.0614941 30.8413867,26.2191797 C31.821875,30.2502051 32.278418,34.9607324 32.1021094,39.1444922 C32.0632617,40.1224902 31.2356738,40.8798535 30.260498,40.8410059 C29.2825,40.799502 28.5226465,39.9745703 28.5641504,38.9967383 C28.8804102,31.4978125 26.966416,21.6462793 23.3167285,18.805918 C22.4217383,18.1081543 21.5086523,17.9316797 20.4451563,18.2482715 C17.3222363,19.1794531 17.4052441,21.9212012 18.3727832,28.4240332 C19.0265527,32.8181348 19.7658203,37.8009277 18.1418555,42.2755469 C17.8770605,42.9940625 17.2002148,43.4403125 16.4765527,43.4403125 Z" id="Shape"></path>
                                    <path d="M23.407373,43.4403125 C23.2777148,43.4403125 23.1480566,43.4273633 23.0157422,43.3961523 C22.0638086,43.1808301 21.462002,42.234043 21.6798145,41.2794531 C23.407373,33.6196582 20.8834375,25.8456445 20.8575391,25.7677832 C20.5514063,24.8392578 21.0547656,23.8380176 21.983291,23.5318848 C22.9119824,23.2232617 23.9132227,23.7291113 24.2218457,24.6549805 C24.3385547,25.0104199 27.0753223,33.4509863 25.1322754,42.0600586 C24.9481641,42.882666 24.2166992,43.4403125 23.407373,43.4403125 Z" id="Shape"></path>
                                    <path d="M3.48234375,34.7689844 C2.5978125,34.7689844 1.83380859,34.1075781 1.72623047,33.2074414 C1.57847656,31.9804199 1.34240234,30.62125 1.09072266,29.1817285 C0.247695312,24.3440332 -0.801357422,18.3262988 0.974013672,12.9827539 C1.96612305,9.99463867 3.76241211,7.46555664 6.31357422,5.46307617 C9.13185547,3.25307617 12.98375,1.60603516 17.7631738,0.5684375 C23.3502637,-0.64546875 28.6313867,0.332363281 33.0357812,3.39319336 C35.593418,5.17005859 37.8397754,7.65481445 39.5281543,10.5783496 C41.0586523,13.2241406 42.0779883,16.1006934 42.4827344,18.8995508 C42.6201953,19.8670898 41.9483301,20.7645703 40.9783008,20.9020313 C40.0107617,21.0421484 39.1157715,20.3702832 38.9758203,19.4002539 C38.4208301,15.5249512 36.0008203,9.7665332 31.0125488,6.30095703 C27.3864355,3.78233398 23.1791016,3.01716797 18.5127344,4.02870117 C10.657207,5.73550781 6.01922852,9.02709961 4.33450195,14.0982129 C2.84168945,18.5960742 3.76523437,23.895293 4.57970703,28.5721191 C4.83902344,30.0609473 5.08422852,31.4669336 5.24244141,32.7872559 C5.35915039,33.7599414 4.66520508,34.6393262 3.69517578,34.7560352 C3.62246094,34.7636719 3.55240234,34.7689844 3.48234375,34.7689844 Z" id="Shape"></path>
                                </g>
                                <path d="M30.0918262,62.4200488 L22.578623,54.9055176 C22.2465918,54.5734863 21.7966895,54.3868848 21.3258691,54.3868848 C20.856377,54.3868848 20.4063086,54.5734863 20.0742773,54.9055176 L2.07386719,72.9072559 C0.736777344,74.2430176 0,76.022373 0,77.913291 C0,79.8068652 0.736777344,81.5863867 2.07386719,82.9221484 C3.41228516,84.2605664 5.19047852,84.9973437 7.08272461,84.9973437 C8.9749707,84.9973437 10.7543262,84.2605664 12.091582,82.9221484 L30.0918262,64.9230664 C30.4238574,64.5910352 30.610625,64.1398047 30.610625,63.6703125 C30.610625,63.2008203 30.4238574,62.7520801 30.0918262,62.4200488 Z" id="Shape" fill="#656D78"></path>
                            </g>
                        </g>
                    </g>
                </g>
            </g>
        </g>
    </g>
</svg>