<svg width="85px" height="63px" viewBox="0 0 85 63" version="1.1" xmlns="http://www.w3.org/2000/svg" xmlns:xlink="http://www.w3.org/1999/xlink">
    <!-- Generator: Sketch 46.2 (44496) - http://www.bohemiancoding.com/sketch -->
    <desc>Created with Sketch.</desc>
    <defs></defs>
    <g id="paginadorCarpetaInvestigación-Correcciones" stroke="none" stroke-width="1" fill="none" fill-rule="evenodd">
        <g id="Detalle-de-caso-NIC" transform="translate(-417.000000, -1365.000000)" fill-rule="nonzero">
            <g id="Detalle-pre-denuncia" transform="translate(-46.000000, 649.000000)">
                <g id="Solicitudes-Preliminares" transform="translate(225.000000, 394.000000)">
                    <g id="Row-Copy" transform="translate(0.000000, 286.000000)">
                        <g id="Card-Menu">
                            <g id="051-letter" transform="translate(238.000000, 36.000000)">
                                <rect id="Rectangle-path" fill="#27B5F7" x="1.73469727" y="1.88709961" width="81.5306055" height="58.979541"></rect>
                                <path d="M83.2653027,62.6015039 L1.73469727,62.6015039 C0.776787109,62.6015039 0,61.8248828 0,60.8668066 L0,1.88709961 C0,0.929023438 0.776787109,0.152402344 1.73469727,0.152402344 L83.2653027,0.152402344 C84.2232129,0.152402344 85,0.929023438 85,1.88709961 L85,60.8666406 C85,61.8248828 84.2232129,62.6015039 83.2653027,62.6015039 Z M3.46939453,59.1321094 L81.5306055,59.1321094 L81.5306055,3.62179688 L3.46939453,3.62179688 L3.46939453,59.1321094 Z" id="Shape" fill="#000000"></path>
                                <path d="M75.8060547,41.2827734 L36.4286426,41.2827734 C35.4707324,41.2827734 34.6939453,40.5061523 34.6939453,39.5480762 C34.6939453,38.59 35.4707324,37.8133789 36.4286426,37.8133789 L75.8060547,37.8133789 C76.7639648,37.8133789 77.540752,38.59 77.540752,39.5480762 C77.540752,40.5061523 76.7639648,41.2827734 75.8060547,41.2827734 Z" id="Shape" fill="#000000"></path>
                                <path d="M75.8060547,46.9032324 L36.4286426,46.9032324 C35.4707324,46.9032324 34.6939453,46.1266113 34.6939453,45.1685352 C34.6939453,44.210459 35.4707324,43.4338379 36.4286426,43.4338379 L75.8060547,43.4338379 C76.7639648,43.4338379 77.540752,44.210459 77.540752,45.1685352 C77.540752,46.1266113 76.7639648,46.9032324 75.8060547,46.9032324 Z" id="Shape" fill="#000000"></path>
                                <path d="M67.2748438,52.5235254 L67.2507715,52.5235254 C66.2928613,52.5235254 65.5160742,51.7469043 65.5160742,50.7888281 C65.5160742,49.830752 66.2928613,49.0541309 67.2507715,49.0541309 L67.2748438,49.0541309 C68.2327539,49.0541309 69.009541,49.830752 69.009541,50.7888281 C69.009541,51.7469043 68.2329199,52.5235254 67.2748438,52.5235254 Z" id="Shape" fill="#000000"></path>
                                <path d="M62.0702539,52.5236914 L36.4286426,52.5236914 C35.4707324,52.5236914 34.6939453,51.7470703 34.6939453,50.7889941 C34.6939453,49.830918 35.4707324,49.0542969 36.4286426,49.0542969 L62.0704199,49.0542969 C63.0283301,49.0542969 63.8051172,49.830918 63.8051172,50.7889941 C63.8049512,51.7470703 63.0283301,52.5236914 62.0702539,52.5236914 Z" id="Shape" fill="#000000"></path>
                                <path d="M28.7612109,11.9483105 L9.19394531,11.9483105 C8.23603516,11.9483105 7.45924805,11.1716895 7.45924805,10.2136133 C7.45924805,9.25553711 8.23603516,8.47891602 9.19394531,8.47891602 L28.7612109,8.47891602 C29.7191211,8.47891602 30.4959082,9.25553711 30.4959082,10.2136133 C30.4959082,11.1716895 29.7191211,11.9483105 28.7612109,11.9483105 Z" id="Shape" fill="#000000"></path>
                                <path d="M23.0011328,17.5687695 L9.19394531,17.5687695 C8.23603516,17.5687695 7.45924805,16.7921484 7.45924805,15.8340723 C7.45924805,14.8759961 8.23603516,14.099375 9.19394531,14.099375 L23.0012988,14.099375 C23.959209,14.099375 24.7359961,14.8759961 24.7359961,15.8340723 C24.7359961,16.7921484 23.959043,17.5687695 23.0011328,17.5687695 Z" id="Shape" fill="#000000"></path>
                                <path d="M75.8060547,22.0276172 L65.726748,22.0276172 C64.7688379,22.0276172 63.9920508,21.2509961 63.9920508,20.2929199 L63.9920508,10.2136133 C63.9920508,9.25553711 64.7688379,8.47891602 65.726748,8.47891602 L75.8060547,8.47891602 C76.7639648,8.47891602 77.540752,9.25553711 77.540752,10.2136133 L77.540752,20.2929199 C77.540752,21.2508301 76.7639648,22.0276172 75.8060547,22.0276172 Z M67.4616113,18.5582227 L74.0715234,18.5582227 L74.0715234,11.9483105 L67.4616113,11.9483105 L67.4616113,18.5582227 Z" id="Shape" fill="#000000"></path>
                            </g>
                        </g>
                    </g>
                </g>
            </g>
        </g>
    </g>
</svg>