<?xml version="1.0" encoding="UTF-8"?>
<svg width="85px" height="69px" viewBox="0 0 85 69" version="1.1" xmlns="http://www.w3.org/2000/svg" xmlns:xlink="http://www.w3.org/1999/xlink">
    <!-- Generator: Sketch 46.2 (44496) - http://www.bohemiancoding.com/sketch -->
    <title>051-folder</title>
    <desc>Created with Sketch.</desc>
    <defs></defs>
    <g id="paginadorCarpetaInvestigación-Correcciones" stroke="none" stroke-width="1" fill="none" fill-rule="evenodd">
        <g id="Detalle-de-caso-NIC" transform="translate(-414.000000, -2263.000000)" fill-rule="nonzero">
            <g id="Detalle-pre-denuncia" transform="translate(133.000000, 649.000000)">
                <g id="Conclusiones" transform="translate(49.000000, 1460.000000)">
                    <g id="051-folder" transform="translate(232.000000, 154.000000)">
                        <polygon id="Shape" fill="#89CD37" points="9.80106445 4.52857422 1.73469727 4.52857422 1.73469727 66.9775098 83.2653027 66.9775098 83.2653027 4.52857422 53.7238184 4.52857422"></polygon>
                        <g id="Group" transform="translate(1.660156, 1.660156)" fill="#639329">
                            <polygon id="Shape" points="38.2375488 9.80704102 53.1535547 9.80704102 50.7421777 0.0928027344 30.7786328 0.0928027344"></polygon>
                            <polygon id="Shape" points="36.656582 9.80704102 34.2452051 0.0928027344 9.94516602 0.0928027344 7.53378906 9.80704102 0.0745410156 9.80704102 0.0745410156 65.3173535 81.6051465 65.3173535 81.6051465 9.80704102"></polygon>
                        </g>
                        <rect id="Rectangle-path" fill="#FFFFFF" x="20.2959082" y="28.0041797" width="44.4081836" height="22.4383398"></rect>
                        <path d="M83.2653027,2.79387695 L54.4478125,2.79387695 L54.0857324,1.33509766 C53.8936523,0.561630859 53.199209,0.0182617187 52.402002,0.0182617187 L11.6053223,0.0182617187 C10.8082813,0.0182617187 10.1136719,0.561464844 9.9215918,1.33509766 L9.55951172,2.79387695 L1.73469727,2.79387695 C0.776621094,2.79387695 0,3.57049805 0,4.52857422 L0,66.9775098 C0,67.9355859 0.776621094,68.712207 1.73469727,68.712207 L83.2653027,68.712207 C84.2233789,68.712207 85,67.9355859 85,66.9775098 L85,11.4671973 L85,4.52857422 C85,3.57049805 84.2233789,2.79387695 83.2653027,2.79387695 Z M52.5957422,9.7325 L39.8975391,9.7325 L39.673418,9.7325 L38.1233301,3.48765625 L51.0454883,3.48765625 L52.5957422,9.7325 Z M3.46939453,6.26327148 L8.69822266,6.26327148 L7.83693359,9.73266602 L3.46939453,9.73266602 L3.46939453,6.26327148 Z M81.5306055,65.2428125 L3.46939453,65.2428125 L3.46939453,13.2018945 L9.19394531,13.2018945 C9.99098633,13.2018945 10.6855957,12.6586914 10.8776758,11.8850586 L12.962002,3.48765625 L34.5486816,3.48765625 L36.6333398,11.8850586 C36.8254199,12.6585254 37.5198633,13.2018945 38.3170703,13.2018945 L81.5307715,13.2018945 L81.5307715,65.2428125 L81.5306055,65.2428125 Z M81.5306055,9.7325 L56.1703906,9.7325 L55.3091016,6.26310547 L81.5306055,6.26310547 L81.5306055,9.7325 Z" id="Shape" fill="#000000"></path>
                        <path d="M64.7040918,52.1758887 L20.2959082,52.1758887 C19.337832,52.1758887 18.5612109,51.3992676 18.5612109,50.4411914 L18.5612109,28.0035156 C18.5612109,27.0454395 19.337832,26.2688184 20.2959082,26.2688184 L64.7040918,26.2688184 C65.662168,26.2688184 66.4387891,27.0454395 66.4387891,28.0035156 L66.4387891,50.4410254 C66.4387891,51.3992676 65.662168,52.1758887 64.7040918,52.1758887 Z M22.0306055,48.7064941 L62.9693945,48.7064941 L62.9693945,29.7382129 L22.0306055,29.7382129 L22.0306055,48.7064941 Z" id="Shape" fill="#000000"></path>
                        <path d="M57.9930762,35.3365918 L57.9691699,35.3365918 C57.0110937,35.3365918 56.2344727,34.5599707 56.2344727,33.6018945 C56.2344727,32.6438184 57.0110937,31.8671973 57.9691699,31.8671973 L57.9930762,31.8671973 C58.9511523,31.8671973 59.7277734,32.6438184 59.7277734,33.6018945 C59.7277734,34.5599707 58.9511523,35.3365918 57.9930762,35.3365918 Z" id="Shape" fill="#000000"></path>
                        <path d="M52.7886523,35.3367578 L27.0069238,35.3367578 C26.0488477,35.3367578 25.2722266,34.5601367 25.2722266,33.6020605 C25.2722266,32.6439844 26.0488477,31.8673633 27.0069238,31.8673633 L52.7886523,31.8673633 C53.7467285,31.8673633 54.5233496,32.6439844 54.5233496,33.6020605 C54.5233496,34.5601367 53.7465625,35.3367578 52.7886523,35.3367578 Z" id="Shape" fill="#000000"></path>
                        <path d="M57.9930762,40.9570508 L57.9691699,40.9570508 C57.0110937,40.9570508 56.2344727,40.1804297 56.2344727,39.2223535 C56.2344727,38.2642773 57.0110937,37.4876563 57.9691699,37.4876563 L57.9930762,37.4876563 C58.9511523,37.4876563 59.7277734,38.2642773 59.7277734,39.2223535 C59.7277734,40.1804297 58.9511523,40.9570508 57.9930762,40.9570508 Z" id="Shape" fill="#000000"></path>
                        <path d="M52.7886523,40.9570508 L27.0069238,40.9570508 C26.0488477,40.9570508 25.2722266,40.1804297 25.2722266,39.2223535 C25.2722266,38.2642773 26.0488477,37.4876563 27.0069238,37.4876563 L52.7886523,37.4876563 C53.7467285,37.4876563 54.5233496,38.2642773 54.5233496,39.2223535 C54.5233496,40.1804297 53.7465625,40.9570508 52.7886523,40.9570508 Z" id="Shape" fill="#000000"></path>
                        <path d="M57.9930762,46.5775098 L57.9691699,46.5775098 C57.0110937,46.5775098 56.2344727,45.8008887 56.2344727,44.8428125 C56.2344727,43.8847363 57.0110937,43.1081152 57.9691699,43.1081152 L57.9930762,43.1081152 C58.9511523,43.1081152 59.7277734,43.8847363 59.7277734,44.8428125 C59.7277734,45.8008887 58.9511523,46.5775098 57.9930762,46.5775098 Z" id="Shape" fill="#000000"></path>
                        <path d="M52.7886523,46.5776758 L27.0069238,46.5776758 C26.0488477,46.5776758 25.2722266,45.8010547 25.2722266,44.8429785 C25.2722266,43.8849023 26.0488477,43.1082812 27.0069238,43.1082812 L52.7886523,43.1082812 C53.7467285,43.1082812 54.5233496,43.8849023 54.5233496,44.8429785 C54.5233496,45.8010547 53.7465625,46.5776758 52.7886523,46.5776758 Z" id="Shape" fill="#000000"></path>
                    </g>
                </g>
            </g>
        </g>
    </g>
</svg>