<?xml version="1.0" encoding="UTF-8"?>
<svg width="62px" height="95px" viewBox="0 0 62 95" version="1.1" xmlns="http://www.w3.org/2000/svg" xmlns:xlink="http://www.w3.org/1999/xlink">
    <!-- Generator: Sketch 46.2 (44496) - http://www.bohemiancoding.com/sketch -->
    <title>051-lawyer</title>
    <desc>Created with Sketch.</desc>
    <defs></defs>
    <g id="paginadorCarpetaInvestigación-Correcciones" stroke="none" stroke-width="1" fill="none" fill-rule="evenodd">
        <g id="Detalle-de-caso-NIC" transform="translate(-800.000000, -2250.000000)" fill-rule="nonzero">
            <g id="Detalle-pre-denuncia" transform="translate(133.000000, 649.000000)">
                <g id="Conclusiones" transform="translate(49.000000, 1460.000000)">
                    <g id="051-lawyer" transform="translate(618.000000, 141.000000)">
                        <path d="M38.7269585,59.025457 L38.7269585,62.755586 C38.7269585,64.0017715 39.4574459,65.0614506 40.6476667,65.5407245 L55.1200265,70.6756977 C57.8138476,71.7604764 59.5686275,74.7092203 59.5686275,77.5299013 L59.5686275,92.3921569 L1.82352941,92.3921569 L1.82352941,77.5299013 C1.82352941,74.7094035 3.57830921,71.7606596 6.27213038,70.6756977 L20.7444902,65.5407245 C21.9347109,65.0612674 22.6651984,63.937282 22.6651984,62.6909133 L22.6651984,58.9607843" id="Shape" fill="#0058A0"></path>
                        <g id="Group" transform="translate(13.980392, 62.607843)" fill="#0F8EE3">
                            <polyline id="Shape" points="0.0375163399 5.7423426 4.39471895 13.0981545 1.12860131 21.4894737 8.98598693 29.7019044 8.98598693 0.123339949"></polyline>
                            <polyline id="Shape" points="34.0022484 5.7423426 29.6450458 13.0981545 32.9109804 21.4894737 25.0537778 29.7019044 25.0537778 0.123339949"></polyline>
                        </g>
                        <polygon id="Shape" fill="#FEBBA0" points="30.99919 69.2941176 23.0980392 64.1823182 23.0980392 57.745098 38.9019608 57.745098 38.9019608 64.1823182"></polygon>
                        <polygon id="Shape" fill="#FFFFFF" points="38.9019608 73.876644 30.99919 68.6862745 23.0980392 73.876644 23.0980392 92.3921569 38.9019608 92.3921569"></polygon>
                        <path d="M12.1568627,24.9215686 L12.1568627,47.9308779 C12.3825852,50.6476566 13.822279,53.0665849 16.0026074,54.3912449 L27.3396899,60.3547031 C29.616231,61.7379748 32.384137,61.7379748 34.660678,60.3547031 L45.9635434,54.3912449 C48.1436879,53.0664006 49.6174148,50.6476566 49.8431373,47.9308779 L49.8431373,24.9215686 L12.1568627,24.9215686 Z" id="Shape" fill="#FEBBA0"></path>
                        <g id="Group" transform="translate(6.686275, 1.823529)" fill="#A54E31">
                            <path d="M41.8992353,24.8433437 L41.8992353,30.7997972 L43.5431062,37.4702678 L43.5431062,37.4702678 C46.5945922,37.4702678 49.0912625,34.9719436 49.0912625,31.9184362 L49.0912625,12.2164195 L41.8992353,24.8433437 Z" id="Shape"></path>
                            <path d="M42.1661714,3.69251956 L8.94539157,3.69251956 C4.16975176,3.69251956 0.28549122,7.49938479 0.150829017,12.2456494 L0.144582748,12.2164195 L0.144582748,31.9184362 C0.144582748,34.9719436 2.74927678,37.524867 5.80076273,37.524867 L5.80076273,37.4702678 C5.80076273,37.4702678 5.79947673,31.6230125 5.79947673,22.8610456 C7.74647542,24.1484455 9.97180048,24.8433437 12.4804122,24.8433437 L37.260646,24.8433437 C43.7946104,24.8433437 49.0914462,19.5429989 49.0914462,13.0047061 L49.0914462,0.0830936394 C49.0914462,0.0830936394 46.2056701,3.69251956 42.1661714,3.69251956 Z" id="Shape"></path>
                        </g>
                        <g id="Group" transform="translate(12.156863, 33.431373)" fill="#C2EDFF">
                            <path d="M36.0522269,10.3148421 L22.7367148,10.3148421 C21.8918837,10.3148421 21.2069448,9.63610526 21.2069448,8.79892398 L21.2069448,1.54673684 C21.2069448,0.709555556 21.8918837,0.0308187135 22.7367148,0.0308187135 L36.0522269,0.0308187135 C36.8970581,0.0308187135 37.581997,0.709555556 37.581997,1.54673684 L37.581997,8.79892398 C37.581814,9.63610526 36.897241,10.3148421 36.0522269,10.3148421 Z" id="Shape"></path>
                            <path d="M14.9499256,10.3148421 L1.63441348,10.3148421 C0.789582334,10.3148421 0.104643442,9.63610526 0.104643442,8.79892398 L0.104643442,1.54673684 C0.104643442,0.709555556 0.789582334,0.0308187135 1.63441348,0.0308187135 L14.9499256,0.0308187135 C15.7947567,0.0308187135 16.4796956,0.709555556 16.4796956,1.54673684 L16.4796956,8.79892398 C16.4795127,9.63610526 15.7947567,10.3148421 14.9499256,10.3148421 Z" id="Shape"></path>
                        </g>
                        <polygon id="Shape" fill="#FFFFFF" points="30.99919 68.9171567 23.0980392 63.8235294 23.0980392 74.1568627 30.99919 68.9171567 38.9019608 63.8235294 38.9019608 74.1568627"></polygon>
                        <polygon id="Shape" fill="#A54E31" points="29.5527916 69.9019608 27.3529412 87.6186174 31.00009 92.3921569 34.6470588 87.6186174 32.4472084 69.9019608"></polygon>
                        <path d="M56.3136285,68.6958756 C56.2887586,68.6859388 41.7100053,63.5261464 41.7100053,63.5261464 C41.2621623,63.3355064 41.0153053,62.9831169 41.013463,62.530991 L41.013463,62.5052288 C41.013463,62.5026526 41.0130946,62.5002604 41.0130946,62.4976842 L41.0130946,58.9345936 L46.882214,55.8473669 C46.9166634,55.8293334 46.950376,55.8101958 46.9835359,55.7901381 C49.7162807,54.1345513 51.5128108,51.1682227 51.7889592,47.8552091 C51.7931963,47.8022127 51.7955912,41.0462705 51.7955912,41.0462705 C55.0494992,40.2327383 57.4670407,37.2884916 57.4670407,33.7896223 L57.4670407,1.92330383 C57.4670407,1.10645937 56.950483,0.378678382 56.1789625,0.108359728 C55.4079946,-0.161590895 54.5489688,0.0838856772 54.0383062,0.721683127 C54.0152785,0.750573548 51.6378974,3.61274941 48.5973181,3.61274941 L15.2845067,3.61274941 C12.4670199,3.61274941 9.80409507,4.69420804 7.78649893,6.65765258 C5.82619573,8.56497242 4.68181048,11.101993 4.54935508,13.822109 C4.53903866,13.9027077 4.53369623,33.7894383 4.53369623,33.7894383 C4.53369623,37.2167255 6.98384494,40.1970393 10.2051457,41.0672482 L10.2051457,47.6951157 C10.2051457,47.7484801 10.2075406,47.8016606 10.2117777,47.8548411 C10.4888472,51.1814718 12.2728502,54.1478004 14.9833042,55.78977 C15.017201,55.8103798 15.0514662,55.8297014 15.0866525,55.8482869 L20.9876423,58.9428743 L20.9876423,62.4606971 C20.9876423,62.9349048 20.720705,63.3406588 20.2892578,63.5265144 C20.2892578,63.5265144 5.71197827,68.6857548 5.68692412,68.6958756 C2.33851036,70.0408443 0,73.6055911 0,77.3646581 L0,92.2923571 C0,93.3546781 0.862157593,94.2156863 1.92548529,94.2156863 L60.0745147,94.2156863 C61.1378424,94.2156863 62,93.3546781 62,92.2923571 L62,77.3646581 C62.0003684,73.6055911 59.6620423,70.0408443 56.3136285,68.6958756 Z M3.85133902,90.3693959 L3.85133902,77.3648421 C3.85133902,75.2199584 5.24147603,73.0408477 7.09032509,72.2786559 L12.889256,70.2265159 L16.1577176,75.7464265 L13.2088807,83.3256536 C12.9384432,84.0216 13.0950317,84.8110261 13.6115893,85.3509274 L18.4109333,90.3692119 L3.85133902,90.3692119 L3.85133902,90.3693959 Z M20.9878265,73.95062 L20.9878265,87.494891 L17.2422307,83.5784908 L20.0862455,76.2684782 C20.3001269,75.7184561 20.2494659,75.1007164 19.9488161,74.5926498 L16.5884279,68.9174302 L20.9878265,67.3604757 L20.9878265,73.95062 Z M47.9446206,35.587085 L47.9446206,42.0375616 L35.3062745,42.0375616 L35.3062745,35.4455771 L47.9446206,35.4455771 L47.9446206,35.587085 Z M14.0563005,39.4116615 C14.0563005,39.4105574 14.0564848,39.4092693 14.0564848,39.4081652 L14.056669,39.34652 C14.056669,39.34652 14.0564848,38.5729192 14.0563005,37.1703537 L14.0563005,35.4455771 L26.6946466,35.4455771 L26.6946466,42.0375616 L14.0563005,42.0375616 L14.0563005,39.4116615 L14.0563005,39.4116615 Z M29.8216258,32.9514321 C29.1871663,32.1307233 28.1955008,31.5989188 27.0796699,31.5989188 L14.0555636,31.5989188 C14.0555636,30.444222 14.0553794,29.1822442 14.0553794,27.8245785 C15.5588128,28.3607994 17.1552781,28.630934 18.8291165,28.630934 L43.6780458,28.630934 C44.6111288,28.630934 45.5226578,28.5367181 46.4041587,28.3593273 L46.4041587,31.5985507 L34.9210669,31.5985507 C33.8050518,31.5985507 32.8133864,32.1303553 32.179111,32.9512481 C31.8040356,32.8445191 31.4088801,32.7860022 30.9999079,32.7860022 C30.5914884,32.7861863 30.196517,32.8447032 29.8216258,32.9514321 Z M53.6162543,33.7898064 C53.6162543,35.1320148 52.8821308,36.303825 51.7957754,36.9331578 L51.7957754,35.0609849 C51.7957754,33.8634125 51.1834224,32.8062439 50.2553135,32.1844558 L50.2553135,26.9608101 C51.5050735,26.280321 52.6374844,25.4114002 53.6162543,24.393979 L53.6162543,33.7898064 Z M8.38485103,33.7898064 L8.38485103,14.2547292 C8.38779858,14.2208704 8.38945658,14.1866435 8.39037768,14.1522327 C8.49704205,10.3992381 11.5252785,7.45940777 15.2845067,7.45940777 L48.5971339,7.45940777 C50.5461995,7.45940777 52.2546717,6.80688909 53.6160701,6.00771012 L53.6160701,14.8571957 C53.6160701,20.3309185 49.158089,24.7840916 43.67823,24.7840916 L18.8293008,24.7840916 C16.7628859,24.7840916 14.8659549,24.2235807 13.1915638,23.1185681 C12.6005806,22.7284554 11.842324,22.6940445 11.2181809,23.0293206 C10.5938535,23.3647807 10.2045931,24.0152752 10.2045931,24.7231825 C10.2045931,30.122563 10.2051457,34.4158268 10.2055142,36.9173325 C9.13131739,36.2534048 8.38485103,35.0729459 8.38485103,33.7898064 Z M25.7492208,88.687863 L27.0599582,90.3693959 L24.8387971,90.3693959 L24.8387971,75.0063165 L27.0931181,73.5728363 L25.3584865,87.2648718 C25.2941932,87.7723863 25.4347543,88.2843172 25.7492208,88.687863 Z M24.8387971,70.4464143 L24.8387971,67.2625795 L27.3779249,68.832047 L24.8387971,70.4464143 Z M30.9997237,89.1620708 L29.2792771,86.9549898 L30.9999079,73.3752038 L32.7203544,86.9549898 L30.9997237,89.1620708 Z M37.1623082,90.3693959 L34.9391207,90.3693959 L36.2500423,88.687863 C36.564693,88.2843172 36.7052542,87.7722023 36.6409608,87.2648718 L34.9063292,73.5722843 L37.1624925,75.0065005 L37.1623082,90.3693959 L37.1623082,90.3693959 Z M37.1623082,70.4469664 L34.6220751,68.832231 L37.1623082,67.2623955 L37.1623082,70.4469664 Z M30.9999079,66.5471275 L24.8387971,62.7389284 L24.8389813,60.9624435 L26.3906808,61.7761597 C27.8152672,62.626127 29.4080481,63.0510186 31.000829,63.0510186 C32.5937941,63.0510186 34.1869434,62.6259429 35.6118983,61.7756077 L37.1623082,60.9600513 L37.1624925,62.7387444 L30.9999079,66.5471275 Z M33.7691286,58.3976366 C33.7346791,58.4156701 33.7009666,58.4348077 33.6678067,58.4548654 C31.9974684,59.4667662 30.0034527,59.4665822 28.3334829,58.4548654 C28.2995861,58.4342557 28.2653209,58.414934 28.2301345,58.3963485 L16.9338436,52.47234 C15.319693,51.4725842 14.2495491,49.6635286 14.056669,47.6108366 L14.056669,45.8838519 L27.0802226,45.8838519 C28.9913386,45.8838519 30.5459856,44.3307617 30.5459856,42.4219698 L30.5459856,37.0875467 C30.5459856,36.8367337 30.749919,36.6328446 31.0004606,36.6328446 C31.2515547,36.6328446 31.4556724,36.8369177 31.4556724,37.0875467 L31.4556724,42.4219698 C31.4556724,44.3309457 33.0105036,45.8838519 34.9214354,45.8838519 L47.944989,45.8838519 L47.944989,47.6106526 C47.7526616,49.6506476 46.6694379,51.4604392 45.0331807,52.4727081 L33.7691286,58.3976366 Z M41.0132788,73.95062 L41.0132788,67.3606597 L45.4124932,68.9176142 L42.052105,74.5928338 C41.751271,75.1007164 41.7007942,75.7184561 41.9146756,76.2686622 L44.7586904,83.5786749 L41.0130946,87.4950751 L41.0130946,73.95062 L41.0132788,73.95062 Z M58.1495821,90.3693959 L43.5901721,90.3693959 L48.389516,85.3511114 C48.9058894,84.8112101 49.0626621,84.021784 48.7922247,83.3258377 L45.8433878,75.7466105 L49.1118493,70.2266999 L54.9107802,72.2788399 C56.7599977,73.0406637 58.1497663,75.2199584 58.1497663,77.3650261 L58.1497663,90.3692119 L58.1495821,90.3692119 L58.1495821,90.3693959 Z" id="Shape" fill="#000000"></path>
                        <path d="M40.2199181,21.8823529 L27.4686031,21.8823529 C26.3977064,21.8823529 25.5294118,20.9626954 25.5294118,19.8280121 C25.5294118,18.6933288 26.3977064,17.7736713 27.4686031,17.7736713 L40.2199181,17.7736713 C40.6477573,17.7736713 41.0761531,17.7347544 41.4932314,17.6580998 C42.5479868,17.4639084 43.5526482,18.212764 43.7357693,19.330544 C43.919076,20.448324 43.2123806,21.5120527 42.1570686,21.7062441 C41.5212469,21.8229948 40.8698404,21.8823529 40.2199181,21.8823529 Z" id="Shape" fill="#000000"></path>
                        <path d="M48.031481,17.0196078 L48.0077347,17.0196078 C47.0072678,17.0196078 46.1960784,16.2032766 46.1960784,15.1960784 C46.1960784,14.1888803 47.0072678,13.372549 48.0077347,13.372549 L48.031481,13.372549 C49.0319479,13.372549 49.8431373,14.1888803 49.8431373,15.1960784 C49.8431373,16.2031021 49.0321212,17.0196078 48.031481,17.0196078 Z" id="Shape" fill="#000000"></path>
                    </g>
                </g>
            </g>
        </g>
    </g>
</svg>